<svg width="815" height="714" viewBox="0 0 815 714" fill="none" xmlns="http://www.w3.org/2000/svg">
<path d="M410.912 522.457C409.569 522.46 408.224 522.458 406.877 522.452L406.878 522.052C406.542 522.05 406.205 522.048 405.868 522.046C405.531 522.044 405.195 522.041 404.858 522.039L404.855 522.439C402.161 522.417 399.475 522.376 396.797 522.318L396.806 521.918C394.799 521.874 392.797 521.82 390.8 521.756L390.787 522.155C389.442 522.112 388.099 522.064 386.758 522.012L386.774 521.612C386.102 521.586 385.431 521.558 384.76 521.53L384.744 521.93C382.06 521.815 379.385 521.683 376.721 521.532L376.743 521.133C374.731 521.019 372.724 520.895 370.723 520.761L370.697 521.16C369.355 521.07 368.015 520.975 366.678 520.876L366.708 520.477C366.04 520.428 365.372 520.377 364.706 520.325L364.675 520.724C361.997 520.516 359.33 520.29 356.675 520.045L356.711 519.647C354.7 519.462 352.696 519.266 350.698 519.061L350.658 519.459C349.325 519.321 347.995 519.18 346.669 519.033L346.712 518.636C346.049 518.563 345.387 518.488 344.726 518.413L344.681 518.81C342.001 518.505 339.333 518.181 336.678 517.839L336.729 517.442C334.735 517.185 332.749 516.918 330.77 516.641L330.714 517.037C329.385 516.85 328.059 516.659 326.736 516.464L326.795 516.068C326.128 515.97 325.463 515.87 324.798 515.769L324.738 516.164C322.078 515.761 319.432 515.339 316.8 514.898L316.866 514.504C314.878 514.171 312.898 513.828 310.927 513.475L310.857 513.868C309.531 513.631 308.209 513.388 306.891 513.142L306.965 512.748C306.306 512.625 305.649 512.5 304.993 512.375L304.918 512.768C302.276 512.262 299.651 511.738 297.042 511.195L297.123 510.803C295.145 510.392 293.177 509.97 291.218 509.538L291.132 509.928C289.826 509.64 288.523 509.347 287.226 509.049L287.315 508.659C286.665 508.51 286.017 508.36 285.37 508.209L285.279 508.599C282.645 507.983 280.03 507.349 277.434 506.696L277.531 506.308C275.585 505.818 273.65 505.318 271.726 504.808L271.624 505.194C270.316 504.847 269.013 504.496 267.716 504.139L267.821 503.753C267.173 503.575 266.526 503.396 265.881 503.216L265.773 503.601C263.186 502.878 260.62 502.136 258.076 501.376L258.19 500.993C256.247 500.412 254.316 499.82 252.399 499.218L252.279 499.6C250.999 499.198 249.726 498.791 248.458 498.38L248.581 498C247.947 497.794 247.315 497.588 246.685 497.38L246.56 497.76C243.989 496.913 241.443 496.046 238.923 495.161L239.055 494.783C237.16 494.118 235.28 493.442 233.415 492.755L233.277 493.13C232.006 492.663 230.743 492.19 229.486 491.713L229.627 491.339C228.998 491.1 228.371 490.86 227.746 490.618L227.602 490.991C225.092 490.023 222.609 489.035 220.155 488.028L220.307 487.658C218.429 486.888 216.568 486.106 214.724 485.314L214.567 485.681C213.336 485.152 212.113 484.618 210.898 484.08L211.06 483.714C210.452 483.445 209.846 483.174 209.242 482.902L209.078 483.267C206.603 482.153 204.161 481.02 201.753 479.866L201.925 479.506C200.107 478.635 198.308 477.753 196.529 476.86L196.35 477.218C195.14 476.611 193.94 476 192.749 475.383L192.933 475.028C192.338 474.72 191.746 474.411 191.156 474.1L190.97 474.454C188.576 473.195 186.22 471.916 183.902 470.616L184.098 470.267C182.338 469.281 180.6 468.283 178.886 467.273L178.683 467.618C177.521 466.934 176.37 466.246 175.23 465.552L175.438 465.21C174.861 464.859 174.287 464.507 173.715 464.153L173.505 464.494C171.21 463.074 168.959 461.633 166.753 460.173L166.973 459.839C165.278 458.717 163.61 457.583 161.969 456.438L161.74 456.766C160.644 456.001 159.56 455.231 158.488 454.455L158.723 454.131C158.175 453.735 157.63 453.337 157.089 452.938L156.852 453.26C154.671 451.654 152.543 450.026 150.468 448.377L150.716 448.064C149.125 446.8 147.565 445.524 146.038 444.236L145.78 444.541C144.754 443.676 143.743 442.806 142.746 441.93L143.01 441.63C142.509 441.19 142.012 440.749 141.518 440.306L141.251 440.604C139.228 438.79 137.268 436.953 135.371 435.095L135.65 434.81C134.2 433.39 132.788 431.958 131.414 430.513L131.124 430.789C130.198 429.816 129.29 428.838 128.399 427.854L128.695 427.586C128.248 427.092 127.805 426.596 127.366 426.099L127.066 426.364C125.268 424.328 123.545 422.27 121.898 420.191L122.212 419.943C120.952 418.352 119.737 416.749 118.568 415.134L118.244 415.369C117.459 414.283 116.694 413.193 115.949 412.097L116.28 411.873C115.902 411.315 115.528 410.756 115.16 410.195L114.826 410.415C113.341 408.152 111.944 405.867 110.637 403.561L110.985 403.364C109.988 401.603 109.044 399.831 108.154 398.047L107.796 398.225C107.196 397.021 106.62 395.813 106.069 394.599L106.433 394.434C106.156 393.822 105.884 393.21 105.62 392.596L105.252 392.754C104.183 390.275 103.217 387.776 102.358 385.257L102.736 385.128C102.088 383.228 101.499 381.317 100.973 379.396L100.587 379.501C100.232 378.204 99.9045 376.902 99.6055 375.596L99.9954 375.507C99.8465 374.856 99.7046 374.205 99.5699 373.552L99.1782 373.633C98.6358 371.006 98.2078 368.36 97.897 365.699L98.2943 365.653C98.0626 363.669 97.8964 361.676 97.7967 359.675L97.3971 359.695C97.3305 358.357 97.2934 357.016 97.2863 355.671L97.6862 355.669C97.6845 355.334 97.6846 354.999 97.6865 354.664C97.6885 354.329 97.6923 353.994 97.6979 353.659L97.298 353.652C97.3436 350.961 97.5088 348.287 97.7909 345.63L98.1886 345.672C98.4001 343.68 98.6776 341.698 99.0199 339.726L98.6258 339.657C98.8547 338.339 99.1124 337.025 99.3987 335.716L99.7894 335.801C99.9318 335.151 100.081 334.501 100.238 333.852L99.8488 333.758C100.475 331.164 101.213 328.589 102.06 326.035L102.44 326.161C103.068 324.268 103.757 322.386 104.505 320.516L104.134 320.367C104.629 319.131 105.149 317.9 105.695 316.674L106.06 316.837C106.332 316.227 106.61 315.618 106.895 315.01L106.533 314.84C107.658 312.437 108.882 310.055 110.202 307.696L110.551 307.891C111.52 306.158 112.542 304.437 113.614 302.729L113.276 302.516C113.986 301.385 114.719 300.259 115.473 299.139L115.805 299.362C116.179 298.807 116.559 298.253 116.944 297.7L116.616 297.471C118.13 295.299 119.726 293.149 121.404 291.022L121.718 291.27C122.944 289.716 124.213 288.174 125.526 286.645L125.222 286.385C126.095 285.367 126.987 284.355 127.898 283.349L128.195 283.617C128.639 283.126 129.088 282.637 129.541 282.148L129.248 281.876C131.053 279.932 132.927 278.01 134.87 276.111L135.149 276.397C136.563 275.015 138.013 273.645 139.498 272.288L139.228 271.993C140.219 271.087 141.226 270.187 142.248 269.293L142.511 269.594C143.01 269.158 143.512 268.724 144.018 268.29L143.758 267.986C145.771 266.261 147.843 264.557 149.972 262.876L150.22 263.19C151.774 261.963 153.359 260.747 154.974 259.544L154.734 259.223C155.808 258.423 156.894 257.629 157.994 256.839L158.227 257.164C158.773 256.773 159.323 256.382 159.875 255.993L159.644 255.666C161.806 254.143 164.016 252.641 166.273 251.161L166.492 251.496C168.157 250.405 169.847 249.325 171.563 248.257L171.351 247.918C172.482 247.214 173.624 246.516 174.777 245.822L174.983 246.165C175.558 245.819 176.137 245.474 176.718 245.131L176.514 244.787C178.794 243.438 181.116 242.11 183.478 240.804L183.672 241.154C185.427 240.183 187.204 239.224 189.003 238.276L188.816 237.923C189.987 237.306 191.167 236.695 192.356 236.088L192.538 236.445C193.132 236.142 193.728 235.84 194.326 235.54L194.146 235.183C196.526 233.988 198.941 232.814 201.391 231.661L201.562 232.023C203.363 231.175 205.184 230.338 207.023 229.513L206.859 229.148C208.086 228.597 209.322 228.051 210.565 227.51L210.725 227.877C211.332 227.613 211.941 227.35 212.552 227.089L212.394 226.721C214.837 225.675 217.311 224.649 219.814 223.643L219.963 224.014C221.815 223.27 223.684 222.537 225.568 221.815L225.425 221.441C226.669 220.964 227.92 220.493 229.178 220.026L229.317 220.401C229.945 220.167 230.575 219.935 231.207 219.705L231.07 219.329C233.569 218.416 236.095 217.522 238.647 216.648L238.777 217.027C240.669 216.379 242.576 215.741 244.497 215.115L244.372 214.735C245.647 214.319 246.927 213.909 248.213 213.503L248.334 213.884C248.967 213.685 249.601 213.486 250.237 213.289L250.118 212.907C252.663 212.117 255.232 211.347 257.823 210.596L257.934 210.98C259.852 210.424 261.783 209.878 263.726 209.344L263.619 208.958C264.905 208.604 266.196 208.255 267.493 207.91L267.596 208.297C268.243 208.125 268.892 207.954 269.543 207.784L269.441 207.397C272.021 206.724 274.621 206.07 277.24 205.435L277.335 205.824C279.278 205.352 281.232 204.892 283.197 204.442L283.108 204.052C284.419 203.752 285.735 203.456 287.055 203.165L287.142 203.556C287.79 203.413 288.44 203.271 289.092 203.131L289.007 202.74C291.609 202.178 294.229 201.635 296.867 201.111L296.945 201.503C298.913 201.112 300.89 200.731 302.877 200.361L302.803 199.968C304.112 199.724 305.424 199.485 306.741 199.25L306.811 199.644C307.469 199.527 308.128 199.411 308.788 199.296L308.719 198.902C311.355 198.443 314.006 198.003 316.673 197.582L316.736 197.977C318.706 197.665 320.685 197.364 322.671 197.074L322.613 196.678C323.938 196.484 325.267 196.295 326.6 196.11L326.655 196.506C327.321 196.414 327.987 196.323 328.655 196.233L328.601 195.837C331.241 195.481 333.895 195.144 336.562 194.825L336.61 195.222C338.602 194.984 340.601 194.756 342.607 194.539L342.564 194.141C343.897 193.997 345.233 193.857 346.572 193.722L346.612 194.12C347.274 194.053 347.937 193.988 348.601 193.923L348.562 193.525C351.218 193.267 353.887 193.027 356.567 192.805L356.6 193.204C358.599 193.038 360.605 192.883 362.618 192.739L362.589 192.34C363.919 192.244 365.251 192.153 366.586 192.067L366.613 192.466C367.28 192.423 367.948 192.381 368.616 192.34L368.591 191.941C371.265 191.777 373.949 191.632 376.643 191.505L376.662 191.905C378.657 191.811 380.657 191.727 382.662 191.654L382.647 191.254C383.985 191.205 385.325 191.161 386.667 191.121L386.68 191.521C387.35 191.501 388.022 191.482 388.694 191.465L388.683 191.065C391.352 190.995 394.031 190.943 396.718 190.91L396.723 191.31C398.727 191.285 400.736 191.271 402.749 191.266L402.748 190.866C404.091 190.864 405.436 190.865 406.784 190.872L406.782 191.272C407.118 191.273 407.455 191.275 407.792 191.277C408.129 191.28 408.465 191.282 408.802 191.285L408.805 190.885C411.499 190.907 414.186 190.947 416.863 191.006L416.855 191.406C418.861 191.45 420.863 191.504 422.86 191.568L422.873 191.168C424.218 191.211 425.561 191.259 426.902 191.312L426.887 191.711C427.558 191.738 428.229 191.765 428.9 191.794L428.917 191.394C431.601 191.508 434.275 191.641 436.939 191.791L436.917 192.191C438.929 192.304 440.936 192.428 442.937 192.563L442.963 192.163C444.306 192.253 445.645 192.348 446.982 192.447L446.953 192.846C447.621 192.896 448.288 192.946 448.954 192.998L448.985 192.599C451.663 192.807 454.33 193.034 456.985 193.278L456.949 193.677C458.96 193.862 460.964 194.057 462.962 194.263L463.003 193.865C464.335 194.002 465.665 194.144 466.992 194.29L466.948 194.688C467.611 194.761 468.273 194.835 468.934 194.911L468.979 194.513C471.66 194.819 474.327 195.142 476.982 195.485L476.931 195.881C478.925 196.138 480.912 196.406 482.89 196.683L482.946 196.287C484.275 196.473 485.601 196.664 486.924 196.86L486.866 197.255C487.532 197.354 488.197 197.454 488.862 197.554L488.922 197.159C491.582 197.563 494.229 197.985 496.86 198.425L496.794 198.82C498.782 199.152 500.762 199.495 502.733 199.849L502.803 199.455C504.129 199.693 505.451 199.935 506.769 200.182L506.695 200.575C507.354 200.698 508.011 200.823 508.668 200.949L508.743 200.556C511.384 201.062 514.01 201.586 516.618 202.128L516.537 202.52C518.515 202.931 520.483 203.353 522.442 203.786L522.528 203.395C523.835 203.684 525.137 203.977 526.435 204.274L526.346 204.664C526.995 204.813 527.643 204.963 528.29 205.114L528.381 204.725C531.015 205.341 533.63 205.975 536.226 206.628L536.129 207.016C538.075 207.505 540.01 208.005 541.934 208.516L542.036 208.129C543.344 208.476 544.647 208.828 545.945 209.184L545.839 209.57C546.487 209.748 547.134 209.927 547.78 210.108L547.887 209.722C550.474 210.445 553.04 211.187 555.584 211.948L555.47 212.331C557.413 212.912 559.344 213.503 561.262 214.105L561.381 213.724C562.661 214.125 563.935 214.532 565.203 214.943L565.079 215.324C565.713 215.529 566.345 215.736 566.975 215.944L567.1 215.564C569.671 216.411 572.217 217.277 574.738 218.163L574.605 218.54C576.5 219.206 578.38 219.882 580.245 220.569L580.383 220.193C581.654 220.661 582.918 221.133 584.175 221.611L584.033 221.985C584.662 222.224 585.289 222.464 585.915 222.705L586.058 222.332C588.569 223.3 591.051 224.288 593.505 225.295L593.353 225.665C595.231 226.436 597.092 227.217 598.936 228.01L599.094 227.642C600.324 228.171 601.547 228.705 602.762 229.244L602.601 229.609C603.208 229.879 603.814 230.149 604.418 230.421L604.582 230.056C607.057 231.17 609.499 232.304 611.907 233.457L611.735 233.818C613.553 234.689 615.352 235.57 617.132 236.463L617.311 236.106C618.52 236.712 619.72 237.324 620.911 237.941L620.727 238.296C621.322 238.604 621.914 238.913 622.504 239.223L622.69 238.869C625.084 240.128 627.44 241.408 629.758 242.707L629.562 243.056C631.322 244.043 633.06 245.041 634.775 246.05L634.977 245.706C636.139 246.389 637.29 247.078 638.43 247.772L638.223 248.113C638.799 248.464 639.374 248.817 639.945 249.17L640.155 248.83C642.45 250.25 644.701 251.69 646.907 253.151L646.687 253.484C648.382 254.606 650.05 255.74 651.691 256.886L651.92 256.558C653.016 257.323 654.1 258.093 655.172 258.868L654.938 259.192C655.485 259.588 656.03 259.986 656.572 260.385L656.809 260.063C658.989 261.67 661.118 263.298 663.193 264.946L662.944 265.259C664.535 266.524 666.095 267.8 667.622 269.088L667.88 268.782C668.906 269.647 669.917 270.517 670.914 271.393L670.65 271.694C671.151 272.133 671.648 272.575 672.142 273.017L672.409 272.719C674.432 274.534 676.393 276.37 678.29 278.228L678.01 278.514C679.46 279.934 680.872 281.366 682.246 282.81L682.536 282.534C683.462 283.507 684.37 284.486 685.261 285.469L684.965 285.738C685.413 286.232 685.856 286.727 686.294 287.224L686.594 286.959C688.392 288.995 690.115 291.053 691.762 293.132L691.448 293.381C692.708 294.971 693.923 296.574 695.092 298.189L695.416 297.955C696.202 299.04 696.967 300.131 697.711 301.226L697.38 301.451C697.759 302.009 698.132 302.568 698.5 303.128L698.834 302.909C700.32 305.172 701.717 307.457 703.023 309.763L702.675 309.96C703.672 311.72 704.616 313.493 705.506 315.277L705.864 315.099C706.465 316.302 707.04 317.511 707.591 318.725L707.227 318.89C707.505 319.501 707.776 320.114 708.041 320.728L708.408 320.57C709.477 323.048 710.443 325.548 711.303 328.066L710.924 328.196C711.573 330.096 712.161 332.007 712.687 333.928L713.073 333.822C713.428 335.119 713.756 336.421 714.055 337.728L713.665 337.817C713.814 338.467 713.956 339.119 714.09 339.771L714.482 339.691C715.024 342.318 715.452 344.963 715.763 347.624L715.366 347.671C715.598 349.654 715.764 351.647 715.864 353.648L716.263 353.629C716.33 354.966 716.367 356.308 716.374 357.653L715.974 357.655C715.976 357.989 715.976 358.324 715.974 358.66C715.972 358.995 715.968 359.33 715.962 359.665L716.362 359.672C716.317 362.362 716.151 365.037 715.869 367.694L715.472 367.651C715.26 369.643 714.983 371.626 714.64 373.598L715.034 373.666C714.806 374.985 714.548 376.299 714.262 377.608L713.871 377.522C713.728 378.173 713.579 378.823 713.423 379.471L713.811 379.565C713.186 382.159 712.447 384.734 711.6 387.288L711.22 387.162C710.592 389.055 709.903 390.937 709.155 392.807L709.526 392.956C709.032 394.193 708.511 395.424 707.965 396.649L707.6 396.486C707.328 397.097 707.05 397.706 706.765 398.313L707.127 398.483C706.002 400.887 704.778 403.268 703.459 405.628L703.109 405.432C702.14 407.165 701.118 408.886 700.046 410.595L700.385 410.807C699.674 411.939 698.942 413.065 698.187 414.185L697.855 413.961C697.481 414.517 697.101 415.071 696.716 415.624L697.044 415.853C695.531 418.025 693.934 420.175 692.256 422.302L691.942 422.054C690.716 423.608 689.447 425.149 688.135 426.678L688.438 426.939C687.565 427.957 686.673 428.969 685.762 429.975L685.466 429.706C685.021 430.197 684.572 430.687 684.119 431.175L684.412 431.447C682.608 433.392 680.733 435.314 678.79 437.213L678.511 436.926C677.097 438.308 675.647 439.678 674.162 441.036L674.432 441.331C673.441 442.236 672.435 443.136 671.412 444.03L671.149 443.729C670.65 444.165 670.148 444.6 669.642 445.033L669.903 445.337C667.889 447.062 665.817 448.766 663.688 450.447L663.44 450.133C661.886 451.361 660.301 452.576 658.687 453.779L658.926 454.1C657.852 454.9 656.766 455.695 655.666 456.484L655.433 456.159C654.887 456.551 654.338 456.942 653.785 457.331L654.016 457.658C651.854 459.18 649.645 460.682 647.387 462.162L647.168 461.828C645.503 462.919 643.813 463.998 642.097 465.066L642.309 465.406C641.178 466.109 640.036 466.808 638.884 467.501L638.677 467.158C638.102 467.504 637.524 467.849 636.943 468.193L637.146 468.537C634.866 469.885 632.544 471.213 630.182 472.52L629.988 472.17C628.233 473.141 626.456 474.1 624.657 475.047L624.844 475.401C623.673 476.017 622.493 476.629 621.304 477.235L621.122 476.879C620.529 477.182 619.933 477.483 619.334 477.783L619.514 478.141C617.134 479.335 614.719 480.509 612.269 481.662L612.099 481.3C610.297 482.148 608.476 482.985 606.638 483.811L606.802 484.176C605.574 484.727 604.339 485.273 603.095 485.814L602.935 485.447C602.328 485.711 601.719 485.973 601.108 486.235L601.266 486.603C598.823 487.648 596.349 488.674 593.846 489.68L593.697 489.309C591.845 490.053 589.977 490.787 588.092 491.509L588.236 491.882C586.992 492.359 585.741 492.831 584.483 493.298L584.343 492.923C583.715 493.156 583.085 493.388 582.453 493.619L582.591 493.995C580.091 494.908 577.565 495.801 575.013 496.675L574.884 496.297C572.991 496.945 571.084 497.582 569.164 498.209L569.288 498.589C568.014 499.004 566.733 499.415 565.447 499.821L565.327 499.439C564.694 499.639 564.059 499.837 563.424 500.034L563.542 500.416C560.997 501.206 558.429 501.977 555.837 502.728L555.726 502.344C553.808 502.9 551.877 503.445 549.935 503.98L550.041 504.366C548.755 504.719 547.464 505.069 546.167 505.413L546.064 505.026C545.417 505.199 544.768 505.369 544.118 505.539L544.219 505.926C541.639 506.599 539.04 507.253 536.42 507.889L536.326 507.5C534.382 507.971 532.428 508.432 530.463 508.882L530.552 509.272C529.241 509.572 527.925 509.867 526.605 510.158L526.519 509.767C525.87 509.91 525.22 510.052 524.569 510.193L524.653 510.584C522.051 511.145 519.431 511.688 516.794 512.213L516.715 511.82C514.748 512.212 512.77 512.592 510.784 512.962L510.857 513.356C509.548 513.599 508.236 513.839 506.919 514.073L506.849 513.679C506.191 513.796 505.532 513.913 504.872 514.027L504.941 514.421C502.305 514.88 499.654 515.321 496.987 515.742L496.924 515.347C494.954 515.658 492.976 515.959 490.989 516.25L491.047 516.646C489.722 516.84 488.393 517.029 487.06 517.213L487.005 516.817C486.34 516.91 485.673 517.001 485.005 517.091L485.059 517.487C482.419 517.843 479.765 518.18 477.098 518.499L477.05 518.101C475.058 518.34 473.059 518.567 471.053 518.785L471.096 519.182C469.763 519.327 468.428 519.466 467.089 519.601L467.048 519.203C466.7 519.239 466.352 519.273 466.004 519.308C465.689 519.339 465.375 519.37 465.059 519.4L465.098 519.799C462.442 520.057 459.773 520.297 457.093 520.518L457.06 520.12C455.061 520.285 453.055 520.44 451.043 520.585L451.072 520.984C449.742 521.079 448.409 521.17 447.074 521.257L447.048 520.858C446.381 520.901 445.713 520.943 445.044 520.984L445.069 521.383C442.395 521.547 439.711 521.692 437.017 521.818L436.998 521.419C435.004 521.513 433.004 521.596 430.998 521.67L431.013 522.069C429.675 522.118 428.335 522.163 426.993 522.203L426.981 521.803C426.31 521.823 425.639 521.841 424.967 521.859L424.977 522.259C422.308 522.329 419.63 522.38 416.943 522.413L416.937 522.013C414.933 522.038 412.925 522.053 410.911 522.057L410.912 522.457Z" stroke="black" stroke-width="0.8" stroke-dasharray="2 4 6 8"/>
<path d="M317.949 493.555C316.872 492.732 315.796 491.905 314.722 491.073L314.95 490.745L314.71 490.559C314.522 490.413 314.333 490.267 314.145 490.121C313.876 489.912 313.608 489.703 313.34 489.495L313.11 489.822C310.966 488.151 308.837 486.47 306.726 484.78L306.96 484.456C305.377 483.189 303.804 481.917 302.241 480.64L302.004 480.962C300.951 480.102 299.902 479.24 298.858 478.376L299.097 478.056C298.573 477.623 298.051 477.189 297.53 476.755L297.29 477.074C295.204 475.336 293.135 473.588 291.084 471.833L291.328 471.517C289.779 470.192 288.241 468.863 286.713 467.529L286.466 467.842C285.441 466.946 284.42 466.049 283.403 465.149L283.652 464.838C283.144 464.388 282.638 463.938 282.132 463.488L281.882 463.798C279.853 461.99 277.842 460.174 275.85 458.351L276.104 458.044C274.595 456.662 273.096 455.275 271.608 453.885L271.35 454.189C270.358 453.261 269.37 452.332 268.387 451.401L268.646 451.099C268.155 450.633 267.665 450.168 267.176 449.701L266.916 450.003C264.937 448.115 262.979 446.221 261.04 444.32L261.305 444.023C259.847 442.594 258.401 441.16 256.966 439.724L256.699 440.018C255.738 439.056 254.782 438.092 253.832 437.127L254.101 436.835C253.621 436.347 253.142 435.858 252.664 435.369L252.393 435.661C250.481 433.704 248.59 431.742 246.72 429.774L246.994 429.487C245.585 428.004 244.188 426.517 242.804 425.028L242.526 425.311C241.593 424.307 240.664 423.301 239.742 422.294L240.022 422.013C239.561 421.509 239.101 421.006 238.643 420.502L238.363 420.783C236.524 418.76 234.708 416.732 232.915 414.7L233.199 414.424C231.836 412.879 230.487 411.332 229.15 409.782L228.863 410.054C227.971 409.02 227.086 407.985 226.207 406.95L226.496 406.68C226.248 406.387 225.999 406.094 225.752 405.801C225.562 405.576 225.372 405.351 225.183 405.127L224.892 405.395C223.117 403.287 221.367 401.176 219.642 399.062L219.937 398.798C218.642 397.21 217.361 395.62 216.094 394.029L215.796 394.289C214.939 393.212 214.089 392.135 213.245 391.057L213.545 390.8C213.122 390.258 212.699 389.716 212.279 389.175L211.978 389.43C210.294 387.261 208.638 385.09 207.009 382.917L207.315 382.666C206.073 381.01 204.847 379.352 203.637 377.694L203.329 377.94C202.519 376.83 201.716 375.719 200.92 374.608L201.231 374.365C201.074 374.146 200.918 373.928 200.761 373.709C200.521 373.373 200.282 373.037 200.044 372.701L199.732 372.942C198.132 370.687 196.562 368.432 195.022 366.176L195.338 365.941C194.176 364.239 193.031 362.538 191.903 360.836L191.584 361.066C190.822 359.917 190.069 358.768 189.323 357.62L189.645 357.393C189.268 356.813 188.894 356.233 188.521 355.653L188.199 355.878C186.708 353.556 185.249 351.235 183.824 348.917L184.151 348.698C183.06 346.925 181.99 345.153 180.939 343.383L180.608 343.596C179.904 342.41 179.209 341.225 178.522 340.041L178.855 339.832C178.512 339.241 178.171 338.65 177.833 338.059L177.499 338.266C176.116 335.85 174.77 333.439 173.461 331.032L173.799 330.833C172.813 329.021 171.848 327.211 170.905 325.404L170.564 325.597C169.917 324.359 169.281 323.122 168.655 321.887L168.999 321.699C168.686 321.082 168.375 320.465 168.068 319.849L167.723 320.035C166.482 317.551 165.282 315.073 164.123 312.602L164.473 312.426C163.587 310.537 162.725 308.652 161.888 306.773L161.535 306.941C160.975 305.684 160.426 304.429 159.888 303.176L160.243 303.012C159.967 302.37 159.694 301.728 159.424 301.087L159.068 301.248C157.986 298.679 156.95 296.12 155.962 293.573L156.323 293.424C155.565 291.469 154.835 289.521 154.133 287.581L153.768 287.721C153.296 286.418 152.838 285.119 152.392 283.823L152.758 283.689C152.536 283.042 152.316 282.395 152.1 281.75L151.732 281.881C150.839 279.217 150 276.567 149.215 273.934L149.588 273.817C148.99 271.812 148.425 269.816 147.892 267.831L147.516 267.937C147.155 266.591 146.808 265.249 146.476 263.913L146.854 263.815C146.688 263.148 146.526 262.482 146.368 261.818L145.99 261.911C145.339 259.176 144.75 256.461 144.225 253.768L144.607 253.692C144.207 251.638 143.844 249.598 143.518 247.571L143.133 247.633C142.912 246.255 142.707 244.883 142.52 243.518L142.907 243.466C142.813 242.785 142.724 242.106 142.64 241.428L142.253 241.475C141.905 238.684 141.63 235.921 141.429 233.188L141.819 233.163C141.666 231.074 141.556 229.004 141.491 226.952L141.101 226.96C141.056 225.571 141.032 224.19 141.029 222.818L141.419 222.823C141.417 222.136 141.42 221.452 141.429 220.77L141.038 220.759C141.072 217.955 141.193 215.189 141.4 212.464L141.789 212.502C141.948 210.418 142.158 208.358 142.42 206.323L142.033 206.262C142.209 204.892 142.409 203.533 142.632 202.185L143.016 202.261C143.129 201.577 143.249 200.897 143.374 200.219L142.991 200.136C143.496 197.403 144.101 194.719 144.805 192.087L145.181 192.203C145.714 190.213 146.304 188.253 146.953 186.324L146.584 186.182C147.023 184.877 147.488 183.586 147.98 182.31L148.342 182.468C148.587 181.832 148.839 181.2 149.097 180.572L148.738 180.405C149.779 177.873 150.928 175.4 152.185 172.99L152.528 173.191C153.467 171.393 154.466 169.63 155.527 167.903L155.198 167.677C155.908 166.523 156.645 165.384 157.409 164.262L157.728 164.503C157.918 164.224 158.11 163.946 158.304 163.669C158.498 163.392 158.693 163.116 158.889 162.841L158.576 162.592C160.157 160.387 161.83 158.273 163.593 156.251L163.883 156.53C165.203 155.015 166.574 153.552 167.993 152.14L167.723 151.841C168.671 150.897 169.641 149.977 170.633 149.079L170.89 149.391C171.383 148.944 171.881 148.504 172.385 148.069L172.134 147.751C174.145 146.013 176.239 144.365 178.414 142.805L178.638 143.144C180.245 141.991 181.896 140.887 183.591 139.831L183.388 139.478C184.509 138.779 185.648 138.102 186.806 137.445L186.996 137.806C187.572 137.479 188.153 137.158 188.739 136.841L188.557 136.477C190.862 135.231 193.237 134.066 195.679 132.982L195.835 133.359C197.622 132.566 199.444 131.815 201.301 131.108L201.163 130.723C202.397 130.252 203.648 129.801 204.913 129.368L205.039 129.758C205.654 129.547 206.273 129.341 206.896 129.14L206.776 128.748C209.259 127.944 211.798 127.212 214.39 126.549L214.488 126.947C216.373 126.466 218.287 126.021 220.228 125.614L220.146 125.213C221.433 124.943 222.732 124.689 224.043 124.452L224.114 124.856C224.753 124.74 225.395 124.628 226.04 124.52L225.973 124.116C228.544 123.686 231.159 123.317 233.816 123.009L233.865 123.416C235.802 123.192 237.761 123 239.742 122.84L239.706 122.432C241.017 122.327 242.336 122.236 243.666 122.158L243.693 122.567C244.342 122.53 244.993 122.495 245.646 122.464L245.623 122.055C248.233 121.932 250.878 121.862 253.555 121.846L253.563 122.255C255.513 122.243 257.48 122.26 259.464 122.304L259.467 121.895C260.791 121.925 262.122 121.967 263.46 122.022L263.451 122.431C264.099 122.458 264.75 122.487 265.402 122.52L265.415 122.111C268.028 122.241 270.668 122.418 273.335 122.642L273.31 123.05C275.257 123.214 277.218 123.403 279.192 123.617L279.226 123.209C280.539 123.351 281.857 123.504 283.181 123.668L283.141 124.075C283.802 124.157 284.464 124.242 285.128 124.329L285.171 123.923C287.758 124.263 290.366 124.645 292.994 125.068L292.94 125.473C294.889 125.787 296.849 126.124 298.819 126.483L298.88 126.08C300.172 126.315 301.467 126.56 302.768 126.815L302.702 127.217C303.351 127.345 304.001 127.474 304.653 127.606L304.721 127.204C307.297 127.727 309.89 128.287 312.498 128.884L312.421 129.284C314.349 129.726 316.286 130.188 318.231 130.67L318.315 130.272C319.601 130.591 320.89 130.919 322.182 131.256L322.094 131.653C322.729 131.818 323.366 131.986 324.003 132.156L324.094 131.759C326.647 132.44 329.213 133.155 331.791 133.904L331.692 134.299C333.587 134.849 335.488 135.418 337.395 136.006L337.5 135.613C338.767 136.003 340.037 136.402 341.31 136.809L341.202 137.2C341.837 137.403 342.474 137.608 343.111 137.816L343.222 137.425C345.73 138.24 348.248 139.087 350.776 139.965L350.659 140.354C352.542 141.008 354.43 141.68 356.323 142.368L356.446 141.982C357.691 142.435 358.939 142.896 360.189 143.364L360.062 143.749C360.682 143.981 361.302 144.215 361.922 144.451L362.05 144.066C364.535 145.01 367.027 145.983 369.526 146.985L369.392 147.367C371.232 148.106 373.077 148.86 374.925 149.63L375.064 149.249C376.293 149.761 377.524 150.28 378.756 150.806L378.614 151.185C379.229 151.448 379.845 151.713 380.461 151.979L380.605 151.601C383.042 152.653 385.484 153.733 387.931 154.839L387.781 155.215C389.602 156.039 391.425 156.877 393.252 157.731L393.406 157.357C394.619 157.924 395.833 158.498 397.048 159.078L396.891 159.45C397.489 159.736 398.088 160.023 398.687 160.312L398.846 159.94C401.244 161.097 403.646 162.279 406.051 163.487L405.887 163.856C407.676 164.754 409.467 165.666 411.259 166.593L411.428 166.226C412.612 166.838 413.796 167.456 414.981 168.08L414.81 168.445C415.402 168.757 415.995 169.071 416.587 169.385L416.759 169.021C419.121 170.276 421.486 171.556 423.852 172.86L423.674 173.221C425.425 174.186 427.177 175.164 428.929 176.155L429.111 175.796C430.28 176.457 431.449 177.124 432.619 177.797L432.435 178.155C433.02 178.492 433.604 178.829 434.189 179.168L434.373 178.811C436.681 180.15 438.99 181.512 441.299 182.896L441.109 183.251C442.836 184.286 444.563 185.335 446.29 186.395L446.484 186.043C447.628 186.746 448.773 187.454 449.917 188.168L449.721 188.519C450.288 188.873 450.855 189.229 451.422 189.585L451.619 189.235C453.889 190.662 456.158 192.111 458.427 193.582L458.225 193.93C459.916 195.026 461.606 196.134 463.295 197.254L463.5 196.909C464.617 197.65 465.734 198.396 466.851 199.148L466.644 199.491C467.202 199.867 467.76 200.244 468.317 200.622L468.526 200.279C470.755 201.79 472.983 203.323 475.209 204.876L474.996 205.216C476.644 206.366 478.291 207.528 479.937 208.701L480.153 208.363C481.251 209.146 482.348 209.934 483.445 210.726L483.227 211.062C483.775 211.459 484.323 211.856 484.87 212.255L485.089 211.919C487.264 213.502 489.436 215.105 491.605 216.728L491.381 217.06C492.999 218.271 494.615 219.492 496.229 220.725L496.456 220.395C497.533 221.217 498.608 222.044 499.683 222.876L499.455 223.205C499.723 223.413 499.992 223.621 500.26 223.829C500.529 224.038 500.797 224.246 501.065 224.455L501.295 224.128C503.439 225.799 505.568 227.48 507.679 229.17L507.445 229.494C509.028 230.761 510.601 232.033 512.164 233.31L512.401 232.988C513.454 233.848 514.503 234.71 515.547 235.574L515.308 235.894C515.831 236.327 516.354 236.761 516.875 237.195L517.115 236.876C519.201 238.614 521.27 240.361 523.321 242.117L523.077 242.432C524.626 243.757 526.164 245.087 527.692 246.421L527.939 246.108C528.964 247.003 529.985 247.901 531.002 248.801L530.753 249.112C531.261 249.562 531.767 250.012 532.273 250.462L532.523 250.152C534.552 251.96 536.563 253.776 538.555 255.599L538.301 255.906C539.81 257.288 541.309 258.675 542.797 260.065L543.055 259.761C544.047 260.689 545.035 261.618 546.018 262.549L545.759 262.851C546.25 263.316 546.74 263.782 547.229 264.248L547.489 263.947C549.468 265.834 551.426 267.729 553.365 269.63L553.1 269.927C554.558 271.356 556.004 272.789 557.439 274.226L557.706 273.932C558.667 274.894 559.623 275.858 560.573 276.823L560.304 277.115C560.784 277.603 561.263 278.092 561.741 278.58L562.012 278.289C563.924 280.246 565.815 282.208 567.685 284.176L567.411 284.463C568.82 285.946 570.217 287.433 571.601 288.922L571.879 288.638C572.812 289.643 573.741 290.649 574.663 291.656L574.383 291.937C574.844 292.44 575.304 292.944 575.762 293.447L576.042 293.167C577.881 295.19 579.697 297.218 581.49 299.25L581.206 299.525C582.569 301.07 583.918 302.618 585.255 304.168L585.542 303.895C586.434 304.929 587.319 305.964 588.198 307L587.909 307.27C588.348 307.787 588.786 308.305 589.222 308.823L589.513 308.555C591.288 310.662 593.038 312.774 594.763 314.888L594.468 315.151C595.763 316.74 597.044 318.329 598.311 319.921L598.609 319.661C599.466 320.738 600.316 321.815 601.16 322.893L600.86 323.15C601.283 323.692 601.706 324.233 602.126 324.775L602.427 324.52C604.111 326.689 605.767 328.86 607.396 331.033L607.09 331.283C608.332 332.94 609.558 334.598 610.768 336.256L611.076 336.01C611.886 337.12 612.689 338.231 613.485 339.341L613.174 339.584C613.572 340.139 613.967 340.694 614.361 341.249L614.673 341.008C616.273 343.263 617.843 345.518 619.383 347.773L619.067 348.008C620.229 349.71 621.374 351.412 622.502 353.114L622.821 352.883C623.583 354.032 624.336 355.181 625.082 356.33L624.76 356.557C625.137 357.137 625.511 357.717 625.884 358.297L626.206 358.072C627.697 360.394 629.156 362.714 630.581 365.033L630.254 365.251C631.345 367.024 632.415 368.796 633.466 370.567L633.797 370.354C634.501 371.539 635.196 372.724 635.883 373.909L635.55 374.118C635.893 374.709 636.234 375.3 636.572 375.891L636.906 375.684C638.289 378.099 639.635 380.511 640.944 382.918L640.606 383.117C641.592 384.929 642.557 386.739 643.5 388.546L643.841 388.353C644.488 389.591 645.124 390.828 645.75 392.063L645.407 392.251C645.719 392.868 646.03 393.484 646.337 394.1L646.682 393.915C647.923 396.399 649.123 398.877 650.282 401.347L649.932 401.524C650.818 403.413 651.68 405.297 652.517 407.177L652.87 407.008C653.43 408.266 653.979 409.521 654.517 410.774L654.162 410.937C654.438 411.58 654.711 412.222 654.981 412.863L655.337 412.702C656.419 415.271 657.455 417.829 658.443 420.377L658.082 420.526C658.84 422.481 659.57 424.428 660.272 426.369L660.637 426.229C661.108 427.531 661.567 428.831 662.013 430.127L661.647 430.261C661.869 430.908 662.089 431.554 662.305 432.2L662.673 432.069C663.566 434.733 664.405 437.382 665.19 440.016L664.817 440.133C665.415 442.138 665.98 444.133 666.513 446.119L666.889 446.013C667.25 447.359 667.597 448.701 667.929 450.037L667.551 450.135C667.717 450.802 667.879 451.468 668.037 452.132L668.415 452.038C669.066 454.774 669.655 457.489 670.18 460.181L669.798 460.258C670.198 462.311 670.561 464.352 670.887 466.379L671.272 466.317C671.493 467.695 671.698 469.066 671.885 470.432L671.498 470.484C671.592 471.165 671.681 471.844 671.765 472.522L672.152 472.474C672.5 475.266 672.775 478.029 672.976 480.761L672.586 480.787C672.739 482.875 672.849 484.946 672.914 486.997L673.304 486.99C673.348 488.379 673.373 489.76 673.376 491.132L672.986 491.127C672.988 491.813 672.985 492.498 672.976 493.18L673.367 493.191C673.333 495.995 673.212 498.761 673.005 501.486L672.616 501.448C672.457 503.532 672.247 505.592 671.985 507.627L672.372 507.688C672.196 509.058 671.996 510.417 671.773 511.765L671.389 511.689C671.276 512.372 671.156 513.053 671.031 513.73L671.414 513.814C670.909 516.547 670.304 519.231 669.6 521.863L669.224 521.747C668.691 523.737 668.101 525.697 667.452 527.626L667.821 527.767C667.382 529.073 666.917 530.363 666.425 531.64L666.063 531.482C665.818 532.117 665.566 532.749 665.308 533.378L665.667 533.545C664.626 536.077 663.477 538.549 662.22 540.96L661.877 540.759C660.938 542.557 659.939 544.32 658.878 546.047L659.207 546.272C658.497 547.427 657.76 548.566 656.996 549.688L656.677 549.446C656.487 549.726 656.295 550.004 656.101 550.281C655.908 550.558 655.712 550.834 655.516 551.108L655.829 551.358C654.248 553.563 652.575 555.676 650.812 557.699L650.522 557.42C649.202 558.935 647.831 560.398 646.412 561.81L646.682 562.109C645.734 563.052 644.764 563.973 643.772 564.871L643.515 564.559C643.022 565.005 642.524 565.446 642.02 565.881L642.271 566.199C640.26 567.937 638.166 569.585 635.991 571.145L635.767 570.806C634.16 571.959 632.509 573.063 630.814 574.119L631.017 574.472C629.896 575.17 628.757 575.848 627.599 576.504L627.409 576.143C626.833 576.47 626.251 576.792 625.666 577.108L625.848 577.473C623.543 578.719 621.168 579.884 618.726 580.968L618.57 580.591C616.783 581.384 614.961 582.134 613.104 582.842L613.242 583.227C612.008 583.697 610.757 584.149 609.492 584.581L609.366 584.192C608.751 584.402 608.132 584.608 607.509 584.81L607.629 585.201C605.146 586.005 602.607 586.738 600.015 587.4L599.917 587.002C598.032 587.484 596.118 587.928 594.177 588.335L594.259 588.737C592.972 589.007 591.673 589.26 590.362 589.498L590.291 589.094C589.652 589.21 589.01 589.321 588.365 589.429L588.432 589.834C585.861 590.264 583.246 590.633 580.589 590.941L580.54 590.534C578.603 590.758 576.644 590.95 574.663 591.109L574.699 591.518C573.388 591.623 572.069 591.714 570.739 591.791L570.712 591.382C570.063 591.42 569.412 591.454 568.759 591.485L568.782 591.894C566.172 592.018 563.527 592.088 560.85 592.104L560.842 591.695C558.892 591.706 556.925 591.69 554.941 591.645L554.938 592.055C553.614 592.025 552.283 591.983 550.945 591.928L550.954 591.519C550.306 591.492 549.655 591.463 549.003 591.43L548.99 591.839C546.377 591.709 543.736 591.532 541.07 591.308L541.095 590.899C539.148 590.736 537.187 590.547 535.213 590.333L535.179 590.74C533.866 590.598 532.548 590.445 531.224 590.281L531.264 589.875C530.603 589.793 529.941 589.708 529.277 589.621L529.234 590.027C526.648 589.687 524.04 589.305 521.411 588.881L521.465 588.477C519.516 588.163 517.556 587.826 515.586 587.467L515.525 587.87C514.233 587.635 512.938 587.39 511.637 587.135L511.703 586.732C511.054 586.605 510.404 586.475 509.752 586.343L509.684 586.745C507.108 586.223 504.515 585.663 501.907 585.066L501.984 584.666C500.056 584.224 498.119 583.762 496.174 583.279L496.09 583.678C494.804 583.359 493.515 583.031 492.223 582.694L492.311 582.297C491.676 582.131 491.039 581.963 490.402 581.794L490.311 582.19C487.758 581.51 485.192 580.795 482.614 580.045L482.713 579.651C480.818 579.1 478.917 578.531 477.01 577.944L476.905 578.337C475.638 577.946 474.368 577.548 473.095 577.141L473.203 576.75C472.568 576.546 471.931 576.341 471.294 576.134L471.183 576.525C468.675 575.71 466.157 574.863 463.629 573.984L463.746 573.596C461.863 572.942 459.975 572.27 458.082 571.581L457.959 571.968C456.714 571.515 455.466 571.054 454.216 570.586L454.343 570.201C453.723 569.969 453.103 569.735 452.483 569.499L452.355 569.884C449.87 568.94 447.378 567.967 444.879 566.965L445.013 566.582C443.173 565.844 441.328 565.09 439.48 564.32L439.341 564.7C438.112 564.188 436.881 563.669 435.649 563.143L435.791 562.764C435.176 562.502 434.56 562.237 433.944 561.971L433.8 562.349C431.363 561.297 428.921 560.217 426.474 559.11L426.624 558.735C424.803 557.911 422.98 557.072 421.153 556.219L420.999 556.593C419.786 556.026 418.572 555.452 417.357 554.872L417.514 554.5C416.916 554.214 416.317 553.927 415.718 553.638L415.559 554.009C413.161 552.853 410.759 551.671 408.354 550.463L408.518 550.094C406.729 549.196 404.938 548.283 403.146 547.357L402.977 547.724C401.793 547.112 400.609 546.494 399.424 545.87L399.595 545.504C399.28 545.339 398.965 545.172 398.65 545.006C398.373 544.859 398.095 544.712 397.818 544.564L397.646 544.929C395.284 543.674 392.919 542.394 390.553 541.09L390.731 540.728C388.98 539.763 387.228 538.786 385.476 537.794L385.294 538.154C384.125 537.493 382.956 536.826 381.786 536.153L381.97 535.794C381.385 535.458 380.801 535.121 380.216 534.781L380.032 535.139C377.724 533.8 375.415 532.438 373.106 531.054L373.296 530.699C371.569 529.663 369.842 528.615 368.115 527.554L367.921 527.907C366.777 527.204 365.632 526.495 364.488 525.781L364.684 525.43C364.117 525.076 363.55 524.721 362.983 524.365L362.786 524.715C360.516 523.288 358.247 521.838 355.978 520.368L356.18 520.02C354.489 518.924 352.799 517.816 351.11 516.696L350.905 517.041C349.788 516.3 348.671 515.554 347.554 514.802L347.761 514.458C347.203 514.083 346.645 513.706 346.088 513.328L345.879 513.671C343.65 512.159 341.422 510.627 339.196 509.074L339.409 508.734C337.761 507.584 336.114 506.422 334.468 505.249L334.252 505.586C333.154 504.804 332.057 504.016 330.96 503.223L331.178 502.887C330.63 502.491 330.082 502.094 329.535 501.695L329.316 502.031C327.141 500.447 324.969 498.845 322.8 497.222L323.024 496.89C321.406 495.679 319.79 494.457 318.176 493.225L317.949 493.555Z" stroke="black" stroke-width="0.8" stroke-dasharray="2 4 6 8"/>
<path d="M368.922 517.435C367.63 517.058 366.338 516.677 365.045 516.29L365.148 515.904C364.825 515.807 364.502 515.711 364.179 515.613C363.856 515.516 363.533 515.419 363.21 515.321L363.105 515.707C360.521 514.926 357.949 514.129 355.39 513.317L355.5 512.932C353.583 512.324 351.672 511.707 349.769 511.082L349.655 511.465C348.373 511.043 347.094 510.619 345.818 510.19L345.935 509.808C345.296 509.593 344.658 509.377 344.021 509.161L343.903 509.542C341.352 508.675 338.815 507.793 336.292 506.897L336.415 506.517C334.51 505.84 332.612 505.154 330.723 504.461L330.596 504.84C329.329 504.374 328.065 503.905 326.805 503.433L326.935 503.055C326.305 502.819 325.677 502.582 325.049 502.345L324.918 502.722C322.397 501.766 319.891 500.796 317.4 499.812L317.537 499.437C315.651 498.692 313.773 497.939 311.905 497.178L311.765 497.551C310.518 497.043 309.276 496.532 308.037 496.017L308.18 495.644C307.562 495.387 306.944 495.129 306.327 494.87L306.183 495.242C303.684 494.192 301.202 493.129 298.737 492.051L298.886 491.682C297.034 490.872 295.192 490.055 293.36 489.23L293.206 489.598C291.976 489.044 290.75 488.487 289.529 487.926L289.685 487.56C289.364 487.413 289.044 487.265 288.724 487.118C288.43 486.982 288.135 486.845 287.841 486.709L287.683 487.075C285.227 485.936 282.79 484.784 280.371 483.619L280.534 483.256C278.708 482.375 276.892 481.488 275.087 480.592L274.919 480.954C273.704 480.351 272.495 479.745 271.29 479.136L271.46 478.776C270.858 478.472 270.258 478.167 269.658 477.861L269.487 478.22C267.075 476.989 264.684 475.745 262.314 474.489L262.492 474.133C260.693 473.179 258.907 472.218 257.132 471.25L256.951 471.604C255.767 470.958 254.589 470.309 253.416 469.657L253.6 469.304C253.014 468.979 252.43 468.652 251.846 468.325L251.661 468.676C249.283 467.341 246.928 465.994 244.597 464.634L244.789 464.286C243.041 463.267 241.307 462.241 239.586 461.208L239.39 461.553C238.22 460.851 237.057 460.146 235.899 459.438L236.098 459.094C235.52 458.74 234.943 458.385 234.367 458.029L234.167 458.372C231.862 456.948 229.583 455.512 227.329 454.064L227.536 453.725C225.813 452.619 224.104 451.505 222.411 450.385L222.2 450.721C221.07 449.973 219.947 449.223 218.831 448.47L219.046 448.136C218.752 447.938 218.458 447.739 218.165 447.54C217.902 447.362 217.64 447.184 217.378 447.005L217.162 447.338C214.904 445.799 212.675 444.249 210.475 442.687L210.697 442.359C209.042 441.184 207.403 440.003 205.781 438.816L205.554 439.141C204.451 438.334 203.356 437.524 202.269 436.712L202.5 436.389C201.954 435.982 201.411 435.574 200.87 435.165L200.638 435.487C198.468 433.848 196.33 432.199 194.225 430.54L194.464 430.224C192.85 428.952 191.256 427.675 189.681 426.392L189.437 426.704C188.385 425.848 187.343 424.989 186.308 424.128L186.556 423.818C186.04 423.388 185.525 422.958 185.013 422.526L184.764 422.834C182.663 421.065 180.599 419.285 178.573 417.497L178.829 417.195C177.3 415.846 175.793 414.492 174.306 413.132L174.044 413.429C173.033 412.503 172.031 411.576 171.039 410.646L171.305 410.353C170.81 409.888 170.317 409.423 169.827 408.958L169.559 409.249C167.574 407.363 165.629 405.468 163.727 403.565L164.002 403.282C162.555 401.834 161.132 400.382 159.735 398.926L159.453 399.204C158.509 398.22 157.576 397.234 156.654 396.246L156.94 395.973C156.472 395.472 156.008 394.97 155.546 394.468L155.259 394.739C153.407 392.726 151.603 390.706 149.848 388.678L150.143 388.416C148.792 386.856 147.469 385.291 146.176 383.724L145.874 383.978C145.01 382.931 144.159 381.883 143.321 380.833L143.627 380.584C143.201 380.05 142.779 379.515 142.359 378.981L142.051 379.227C140.353 377.062 138.711 374.891 137.125 372.715L137.442 372.48C136.228 370.814 135.047 369.145 133.9 367.474L133.576 367.699C132.805 366.574 132.048 365.449 131.307 364.323L131.636 364.104C131.266 363.542 130.899 362.978 130.537 362.415L130.206 362.63C128.71 360.307 127.281 357.98 125.919 355.651L126.259 355.451C125.219 353.673 124.218 351.894 123.257 350.114L122.91 350.301C122.262 349.1 121.631 347.898 121.019 346.696L121.371 346.518C121.065 345.917 120.763 345.316 120.466 344.715L120.112 344.889C118.889 342.414 117.744 339.938 116.678 337.463L117.041 337.309C116.227 335.417 115.458 333.527 114.738 331.638L114.368 331.775C113.883 330.504 113.419 329.233 112.977 327.964L113.351 327.837C113.126 327.193 112.908 326.549 112.694 325.905L112.318 326.026C111.455 323.418 110.682 320.814 110.003 318.216L110.387 318.121C109.867 316.135 109.403 314.152 108.994 312.174L108.605 312.248C108.33 310.914 108.079 309.583 107.854 308.253L108.245 308.194C108.132 307.523 108.025 306.853 107.924 306.184L107.531 306.235C107.125 303.533 106.825 300.84 106.633 298.159L107.029 298.139C106.883 296.115 106.8 294.098 106.779 292.089L106.382 292.083C106.368 290.726 106.382 289.372 106.425 288.021L106.822 288.044C106.843 287.372 106.872 286.7 106.907 286.03L106.511 285.998C106.655 283.299 106.915 280.615 107.293 277.949L107.686 278.015C107.968 276.027 108.316 274.049 108.732 272.082L108.343 271.989C108.621 270.674 108.928 269.364 109.265 268.059L109.649 268.169C109.733 267.845 109.819 267.52 109.907 267.196C109.995 266.872 110.084 266.548 110.175 266.226L109.793 266.106C110.527 263.512 111.372 260.969 112.327 258.475L112.698 258.629C113.414 256.76 114.191 254.919 115.029 253.107L114.669 252.929C115.229 251.718 115.816 250.519 116.43 249.333L116.783 249.527C117.088 248.938 117.399 248.351 117.718 247.768L117.369 247.567C118.642 245.235 120.019 242.953 121.496 240.724L121.828 240.954C122.922 239.302 124.073 237.679 125.279 236.084L124.961 235.834C125.758 234.779 126.579 233.737 127.423 232.708L127.731 232.97C128.151 232.457 128.577 231.947 129.009 231.441L128.706 231.173C130.413 229.172 132.21 227.219 134.094 225.316L134.377 225.605C135.76 224.208 137.19 222.838 138.666 221.495L138.397 221.192C139.375 220.301 140.374 219.423 141.392 218.556L141.651 218.867C142.155 218.439 142.663 218.013 143.176 217.591L142.921 217.275C144.943 215.61 147.041 213.989 149.21 212.413L149.446 212.743C151.028 211.594 152.649 210.47 154.308 209.369L154.085 209.031C155.191 208.297 156.314 207.575 157.452 206.863L157.666 207.208C158.219 206.862 158.776 206.52 159.336 206.179L159.127 205.832C161.37 204.471 163.674 203.151 166.038 201.872L166.231 202.229C167.949 201.3 169.697 200.394 171.477 199.509L171.296 199.146C172.485 198.555 173.688 197.974 174.904 197.403L175.078 197.77C175.668 197.493 176.261 197.218 176.857 196.946L176.687 196.578C179.074 195.488 181.51 194.435 183.996 193.42L184.152 193.795C185.963 193.055 187.8 192.336 189.662 191.637L189.517 191.259C190.758 190.793 192.01 190.336 193.273 189.889L193.411 190.269C194.035 190.048 194.661 189.829 195.291 189.613L195.155 189.231C197.629 188.378 200.145 187.56 202.701 186.776L202.824 187.162C204.705 186.585 206.608 186.026 208.531 185.487L208.417 185.098C209.688 184.742 210.967 184.393 212.256 184.053L212.364 184.443C213.007 184.274 213.653 184.106 214.301 183.94L214.195 183.549C216.735 182.9 219.309 182.281 221.916 181.695L222.011 182.088C223.947 181.653 225.901 181.234 227.873 180.834L227.787 180.439C229.072 180.178 230.365 179.924 231.665 179.678L231.747 180.074C232.396 179.951 233.048 179.83 233.701 179.711L233.622 179.314C236.216 178.84 238.839 178.396 241.49 177.982L241.56 178.38C243.512 178.075 245.479 177.786 247.461 177.513L247.398 177.114C248.719 176.932 250.046 176.758 251.38 176.59L251.438 176.99C252.089 176.908 252.741 176.828 253.395 176.75L253.34 176.35C255.959 176.036 258.602 175.75 261.269 175.492L261.316 175.893C263.286 175.703 265.269 175.527 267.264 175.367L267.224 174.965C268.543 174.859 269.867 174.759 271.197 174.667L271.234 175.069C271.898 175.022 272.564 174.978 273.231 174.935L273.196 174.533C275.832 174.363 278.489 174.219 281.165 174.101L281.192 174.504C283.178 174.417 285.176 174.344 287.184 174.285L287.163 173.883C288.493 173.844 289.827 173.812 291.166 173.786L291.183 174.189C291.843 174.176 292.504 174.165 293.166 174.155L293.151 173.752C295.801 173.713 298.469 173.7 301.153 173.711L301.161 174.114C303.146 174.122 305.14 174.144 307.143 174.18L307.141 173.777C308.468 173.801 309.799 173.83 311.134 173.866L311.133 174.269C311.8 174.287 312.467 174.306 313.136 174.327L313.139 173.924C315.79 174.007 318.456 174.114 321.135 174.244L321.126 174.647C323.115 174.743 325.112 174.853 327.117 174.977L327.131 174.574C328.468 174.657 329.809 174.745 331.152 174.839L331.134 175.241C331.794 175.287 332.454 175.334 333.115 175.383L333.134 174.982C335.78 175.178 338.438 175.397 341.107 175.638L341.081 176.04C343.072 176.22 345.069 176.413 347.073 176.619L347.103 176.218C348.424 176.354 349.747 176.495 351.072 176.642L351.039 177.042C351.701 177.116 352.364 177.19 353.028 177.267L353.063 176.866C355.713 177.17 358.374 177.497 361.044 177.845L361.003 178.245C362.976 178.503 364.955 178.772 366.939 179.055L366.985 178.656C368.309 178.844 369.634 179.037 370.963 179.237L370.914 179.635C371.577 179.735 372.241 179.836 372.906 179.938L372.956 179.539C375.584 179.944 378.221 180.369 380.865 180.816L380.809 181.214C382.784 181.548 384.764 181.894 386.748 182.252L386.809 181.855C388.126 182.093 389.445 182.336 390.766 182.584L390.703 182.98C391.356 183.103 392.01 183.227 392.665 183.353L392.729 182.957C395.349 183.459 397.975 183.982 400.608 184.526L400.537 184.921C402.501 185.327 404.468 185.744 406.439 186.174L406.513 185.78C407.816 186.064 409.12 186.352 410.426 186.646L410.348 187.04C411.001 187.187 411.653 187.335 412.306 187.484L412.385 187.091C414.996 187.689 417.613 188.307 420.234 188.946L420.15 189.338C422.091 189.811 424.035 190.295 425.981 190.791L426.069 190.4C427.368 190.731 428.667 191.067 429.968 191.408L429.877 191.798C430.527 191.968 431.177 192.139 431.827 192.312L431.919 191.923C434.503 192.609 437.09 193.316 439.681 194.042L439.584 194.43C441.516 194.972 443.451 195.525 445.387 196.089L445.488 195.702C446.78 196.079 448.073 196.46 449.366 196.847L449.262 197.233C449.585 197.329 449.909 197.426 450.232 197.523C450.555 197.621 450.878 197.718 451.201 197.816L451.306 197.43C453.89 198.211 456.462 199.008 459.021 199.82L458.91 200.204C460.828 200.813 462.739 201.43 464.642 202.055L464.756 201.672C466.038 202.093 467.317 202.518 468.592 202.947L468.475 203.329C469.114 203.544 469.752 203.76 470.39 203.976L470.508 203.595C473.059 204.462 475.596 205.344 478.119 206.24L477.996 206.62C479.901 207.297 481.798 207.982 483.687 208.676L483.815 208.297C485.082 208.763 486.346 209.231 487.606 209.704L487.476 210.081C488.105 210.318 488.734 210.554 489.362 210.792L489.493 210.415C492.014 211.371 494.52 212.341 497.01 213.324L496.874 213.699C498.76 214.445 500.637 215.198 502.506 215.959L502.646 215.586C503.893 216.094 505.135 216.605 506.373 217.12L506.23 217.492C506.849 217.75 507.467 218.008 508.083 218.267L508.228 217.895C510.727 218.944 513.209 220.008 515.674 221.086L515.524 221.455C517.376 222.265 519.219 223.082 521.051 223.907L521.205 223.539C522.435 224.093 523.661 224.65 524.882 225.211L524.726 225.577C525.341 225.86 525.956 226.143 526.57 226.428L526.727 226.062C529.183 227.2 531.621 228.353 534.04 229.518L533.876 229.881C535.703 230.762 537.519 231.649 539.324 232.544L539.491 232.183C540.706 232.786 541.916 233.392 543.121 234.001L542.95 234.36C543.552 234.665 544.153 234.97 544.752 235.276L544.924 234.917C547.335 236.147 549.726 237.391 552.096 238.648L551.919 239.004C553.718 239.958 555.504 240.919 557.278 241.887L557.46 241.533C558.644 242.179 559.822 242.828 560.995 243.48L560.81 243.832C561.396 244.158 561.981 244.485 562.564 244.812L562.75 244.461C565.128 245.795 567.482 247.143 569.814 248.503L569.622 248.851C571.369 249.87 573.103 250.896 574.824 251.929L575.02 251.584C576.19 252.286 577.354 252.991 578.511 253.699L578.312 254.043C578.891 254.397 579.468 254.752 580.043 255.108L580.244 254.765C582.548 256.189 584.828 257.625 587.082 259.072L586.875 259.411C588.598 260.518 590.306 261.632 591.999 262.752L592.211 262.416C593.34 263.163 594.463 263.914 595.579 264.667L595.365 265.001C595.922 265.377 596.478 265.754 597.032 266.132L597.248 265.799C599.506 267.338 601.736 268.888 603.936 270.45L603.714 270.778C605.369 271.953 607.007 273.134 608.629 274.321L608.856 273.996C609.959 274.803 611.054 275.612 612.141 276.425L611.911 276.747C612.456 277.155 612.999 277.563 613.541 277.971L613.773 277.65C615.942 279.289 618.08 280.938 620.186 282.597L619.947 282.913C621.56 284.185 623.155 285.462 624.73 286.745L624.974 286.433C626.025 287.289 627.068 288.148 628.102 289.009L627.855 289.318C628.371 289.749 628.885 290.179 629.398 290.611L629.647 290.303C631.747 292.072 633.811 293.851 635.838 295.64L635.582 295.941C637.11 297.291 638.618 298.645 640.104 300.005L640.366 299.708C641.378 300.634 642.38 301.561 643.371 302.491L643.105 302.784C643.601 303.249 644.093 303.714 644.584 304.179L644.851 303.888C646.837 305.774 648.782 307.669 650.684 309.572L650.409 309.855C651.856 311.303 653.278 312.754 654.676 314.211L654.957 313.933C655.901 314.917 656.834 315.903 657.756 316.891L657.471 317.164C657.938 317.665 658.403 318.167 658.865 318.669L659.152 318.397C661.003 320.411 662.807 322.431 664.563 324.459L664.268 324.721C665.619 326.281 666.941 327.845 668.235 329.413L668.537 329.159C669.401 330.206 670.252 331.254 671.09 332.304L670.783 332.553C671.209 333.087 671.632 333.621 672.051 334.156L672.36 333.91C674.058 336.075 675.7 338.246 677.286 340.422L676.969 340.657C678.183 342.323 679.363 343.992 680.51 345.663L680.834 345.438C681.606 346.562 682.362 347.688 683.104 348.814L682.775 349.033C683.145 349.595 683.512 350.158 683.874 350.722L684.205 350.507C685.7 352.83 687.13 355.157 688.492 357.486L688.152 357.686C689.192 359.464 690.192 361.243 691.153 363.023L691.501 362.836C692.149 364.037 692.78 365.239 693.392 366.441L693.04 366.619C693.346 367.22 693.647 367.821 693.944 368.421L694.298 368.248C695.521 370.723 696.667 373.199 697.733 375.674L697.369 375.828C698.184 377.719 698.952 379.61 699.673 381.499L700.043 381.361C700.528 382.633 700.992 383.903 701.434 385.173L701.06 385.3C701.284 385.944 701.503 386.588 701.716 387.231L702.092 387.111C702.956 389.719 703.728 392.323 704.408 394.921L704.024 395.015C704.543 397.002 705.008 398.985 705.417 400.963L705.805 400.889C706.081 402.223 706.332 403.554 706.557 404.884L706.165 404.943C706.279 405.613 706.386 406.283 706.487 406.953L706.879 406.901C707.285 409.604 707.586 412.297 707.778 414.978L707.382 414.998C707.527 417.022 707.611 419.039 707.632 421.048L708.029 421.053C708.043 422.411 708.029 423.765 707.986 425.116L707.589 425.093C707.567 425.765 707.539 426.437 707.503 427.107L707.9 427.138C707.756 429.838 707.496 432.522 707.117 435.188L706.724 435.122C706.442 437.109 706.094 439.087 705.679 441.055L706.067 441.148C705.79 442.463 705.483 443.773 705.145 445.078L704.761 444.967C704.677 445.292 704.591 445.617 704.504 445.941C704.416 446.265 704.326 446.589 704.235 446.911L704.617 447.031C703.884 449.624 703.038 452.168 702.083 454.662L701.713 454.508C700.997 456.377 700.22 458.218 699.382 460.03L699.742 460.208C699.181 461.419 698.594 462.618 697.981 463.804L697.628 463.61C697.323 464.199 697.011 464.785 696.693 465.369L697.042 465.57C695.769 467.902 694.392 470.183 692.914 472.413L692.583 472.183C691.488 473.835 690.337 475.458 689.132 477.053L689.449 477.303C688.652 478.358 687.832 479.4 686.988 480.429L686.68 480.167C686.26 480.68 685.833 481.19 685.401 481.696L685.704 481.964C683.997 483.965 682.201 485.918 680.317 487.821L680.034 487.532C678.651 488.929 677.221 490.299 675.745 491.642L676.014 491.945C675.035 492.836 674.037 493.714 673.019 494.581L672.759 494.27C672.256 494.698 671.748 495.124 671.235 495.546L671.49 495.861C669.467 497.527 667.37 499.148 665.201 500.723L664.965 500.394C663.382 501.543 661.761 502.667 660.103 503.767L660.325 504.106C659.22 504.84 658.097 505.562 656.958 506.274L656.744 505.929C656.192 506.275 655.635 506.617 655.074 506.958L655.284 507.305C653.041 508.666 650.737 509.986 648.372 511.264L648.179 510.908C646.462 511.837 644.713 512.743 642.933 513.628L643.115 513.99C641.925 514.581 640.723 515.163 639.506 515.734L639.332 515.367C638.743 515.644 638.15 515.919 637.553 516.191L637.723 516.559C635.337 517.649 632.9 518.702 630.414 519.717L630.259 519.342C628.448 520.082 626.611 520.801 624.748 521.5L624.894 521.878C623.653 522.344 622.401 522.801 621.138 523.248L620.999 522.868C620.376 523.089 619.749 523.308 619.12 523.524L619.256 523.906C616.781 524.758 614.265 525.577 611.71 526.361L611.587 525.975C609.706 526.552 607.803 527.11 605.879 527.65L605.993 528.039C604.723 528.395 603.444 528.743 602.155 529.084L602.047 528.693C601.403 528.863 600.758 529.031 600.11 529.197L600.215 529.588C597.676 530.237 595.102 530.855 592.495 531.442L592.4 531.049C590.464 531.484 588.51 531.902 586.537 532.303L586.624 532.698C585.339 532.959 584.046 533.213 582.745 533.459L582.664 533.063C582.014 533.186 581.363 533.307 580.71 533.426L580.789 533.823C578.195 534.296 575.572 534.74 572.92 535.155L572.851 534.757C570.899 535.062 568.932 535.351 566.95 535.624L567.012 536.023C565.692 536.205 564.364 536.379 563.031 536.547L562.973 536.147C562.322 536.229 561.669 536.309 561.015 536.387L561.071 536.787C558.452 537.101 555.809 537.387 553.142 537.645L553.095 537.244C551.125 537.434 549.142 537.61 547.146 537.77L547.187 538.172C545.868 538.278 544.543 538.377 543.213 538.47L543.177 538.068C542.512 538.114 541.847 538.159 541.18 538.202L541.214 538.604C538.578 538.774 535.922 538.918 533.245 539.036L533.219 538.633C531.232 538.72 529.235 538.793 527.227 538.851L527.248 539.254C525.918 539.293 524.583 539.325 523.244 539.351L523.228 538.948C522.568 538.961 521.907 538.972 521.245 538.982L521.26 539.385C518.61 539.423 515.942 539.437 513.258 539.426L513.25 539.023C511.265 539.015 509.271 538.993 507.267 538.957L507.27 539.36C505.943 539.336 504.612 539.307 503.277 539.271L503.278 538.868C502.611 538.85 501.943 538.831 501.274 538.81L501.272 539.213C498.621 539.13 495.955 539.023 493.275 538.893L493.285 538.49C491.296 538.393 489.299 538.283 487.294 538.16L487.279 538.562C485.942 538.48 484.602 538.392 483.258 538.298L483.276 537.896C482.617 537.85 481.957 537.802 481.296 537.753L481.277 538.155C478.631 537.959 475.973 537.74 473.303 537.499L473.329 537.097C471.339 536.917 469.341 536.724 467.338 536.518L467.307 536.919C465.987 536.783 464.664 536.642 463.338 536.495L463.372 536.095C462.71 536.021 462.047 535.946 461.383 535.87L461.348 536.271C458.697 535.967 456.037 535.64 453.366 535.292L453.408 534.892C451.434 534.634 449.456 534.364 447.472 534.082L447.426 534.481C446.102 534.293 444.776 534.099 443.448 533.9L443.497 533.502C442.833 533.402 442.169 533.301 441.505 533.199L441.454 533.597C438.826 533.193 436.19 532.768 433.546 532.321L433.602 531.923C431.626 531.589 429.647 531.243 427.662 530.885L427.602 531.282C426.285 531.044 424.965 530.801 423.645 530.553L423.708 530.157C423.054 530.034 422.4 529.91 421.746 529.784L421.681 530.18C419.062 529.678 416.436 529.155 413.803 528.611L413.873 528.216C411.91 527.81 409.942 527.392 407.972 526.963L407.897 527.357C406.595 527.073 405.291 526.784 403.985 526.49L404.062 526.097C403.41 525.95 402.757 525.802 402.104 525.653L402.026 526.046C399.415 525.448 396.798 524.83 394.176 524.191L394.26 523.799C392.319 523.326 390.376 522.842 388.429 522.346L388.341 522.737C387.043 522.406 385.744 522.07 384.443 521.729L384.534 521.339C384.087 521.222 383.641 521.105 383.194 520.987C382.991 520.933 382.787 520.879 382.583 520.825L382.491 521.214C379.908 520.528 377.321 519.821 374.729 519.095L374.827 518.707C372.894 518.165 370.96 517.612 369.023 517.047L368.922 517.435Z" stroke="black" stroke-width="0.8" stroke-dasharray="2 4 6 8"/>
<path d="M412.539 495.767C330.355 495.263 256.081 477.882 202.434 450.21C148.76 422.525 115.872 384.622 116.126 343.122C116.381 301.623 149.731 264.126 203.74 237.1C257.722 210.089 332.205 193.619 414.388 194.123C496.572 194.627 570.846 212.009 624.493 239.68C678.167 267.365 711.055 305.269 710.801 346.768C710.546 388.267 677.196 425.765 623.187 452.79C569.205 479.801 494.722 496.271 412.539 495.767Z" stroke="black"/>
<path d="M324.36 466.66C258.193 417.911 208.351 360.166 181.243 306.232C154.121 252.271 149.819 202.273 174.435 168.862C199.051 135.451 248.078 124.743 307.652 134.657C367.196 144.565 437.118 175.057 503.285 223.805C569.451 272.554 619.294 330.299 646.402 384.233C673.524 438.194 677.825 488.191 653.21 521.603C628.594 555.014 579.567 565.721 519.992 555.808C460.448 545.9 390.526 515.408 324.36 466.66Z" stroke="black"/>
<path d="M372.493 490.156C293.411 467.604 226.486 430.895 182.211 389.8C137.912 348.685 116.395 303.294 127.791 263.333C139.187 223.373 181.409 196.159 240.731 184.593C300.022 173.034 376.242 177.146 455.325 199.699C534.407 222.251 601.331 258.96 645.607 300.054C689.905 341.17 711.423 386.561 700.027 426.521C688.631 466.482 646.409 493.696 587.087 505.261C527.795 516.821 451.576 512.708 372.493 490.156Z" stroke="black"/>
<path d="M462.797 162.486L462.797 162.487C462.655 164.193 462.537 165.909 462.418 167.63C462.127 171.847 461.834 176.089 461.203 180.269C460.206 186.896 456.223 191.598 449.986 194.076C446.847 195.325 443.59 196.315 440.336 197.173C440.336 197.173 440.336 197.173 440.336 197.173L440.208 196.69C437.637 197.37 435.032 197.913 432.468 198.448C431.954 198.555 431.442 198.661 430.933 198.769L462.797 162.486ZM462.797 162.486C462.799 162.463 462.8 162.44 462.802 162.417L462.797 162.486ZM435.484 199.138C434.548 199.064 433.612 198.99 432.679 198.914L462.957 160.843C463.195 161.882 463.428 162.921 463.661 163.961C464.324 166.914 464.985 169.867 465.758 172.79L465.274 172.917C465.274 172.917 465.274 172.917 465.274 172.917C467.081 179.772 469.275 184.371 472.868 187.39C476.46 190.409 481.372 191.782 488.445 192.38C491.065 192.601 493.709 192.679 496.337 192.757C497.465 192.79 498.589 192.823 499.708 192.867C498.949 193.051 498.2 193.231 497.458 193.41C493.654 194.326 490.044 195.196 486.448 196.116C481.342 197.423 477.336 199.714 474.513 203.039C471.689 206.364 470.084 210.682 469.709 215.979C469.641 216.944 469.574 217.908 469.508 218.872C469.282 222.167 469.056 225.461 468.745 228.779C468.247 226.423 467.746 224.053 467.129 221.721C466.317 218.632 465.389 215.551 464.259 212.553L464.259 212.553C461.709 205.803 456.768 201.53 449.594 200.532L449.594 200.532C444.912 199.884 440.181 199.51 435.484 199.138Z" fill="black" stroke="#FFF0E3"/>
<path d="M587.684 394.651C587.824 395.33 587.969 396.011 588.113 396.694C588.669 399.317 589.23 401.965 589.573 404.63C590.126 408.91 588.485 412.53 585.068 415.161C583.364 416.474 581.544 417.647 579.707 418.738C578.639 419.372 577.544 419.967 576.457 420.543C576.623 420.51 576.789 420.476 576.955 420.443C579.885 419.852 582.842 419.257 585.813 418.837L585.813 418.837C590.43 418.189 594.248 419.967 597.011 423.686L597.012 423.687C598.227 425.324 599.33 427.046 600.364 428.791L587.684 394.651ZM587.684 394.651C588.579 396.295 589.48 397.947 590.438 399.558L587.684 394.651ZM602.01 431.742C601.48 430.749 600.939 429.757 600.364 428.791L601.091 424.871L600.602 424.974C600.602 424.974 600.602 424.974 600.602 424.974C600.728 425.574 600.856 426.174 600.983 426.774C601.334 428.426 601.684 430.077 602.01 431.742Z" fill="black" stroke="#FFF0E3"/>
<path d="M573.946 532.502C572.476 530.15 570.912 527.833 569.2 525.638L569.2 525.637C565.333 520.683 560.113 518.404 553.885 519.431L553.884 519.431C549.835 520.101 545.815 521.011 541.825 521.914C541.18 522.06 540.535 522.206 539.892 522.351C541.725 521.332 543.587 520.286 545.392 519.155C547.868 517.604 550.315 515.942 552.598 514.096C557.145 510.42 559.244 505.473 558.358 499.7C557.803 496.07 556.951 492.475 556.105 488.903C555.789 487.569 555.474 486.238 555.175 484.91C555.346 485.206 555.516 485.503 555.687 485.799C556.999 488.081 558.317 490.371 559.716 492.602L573.946 532.502Z" fill="#10B9C3" stroke="#FFF0E3"/>
<path d="M394.482 498.352C393.841 498.079 393.197 497.809 392.55 497.539C390.556 496.704 388.546 495.862 386.599 494.919L386.599 494.919C381.344 492.373 377.959 489.869 376.077 486.486C374.195 483.102 373.866 478.929 374.497 473.172L394.482 498.352ZM394.482 498.352C394.073 498.298 393.667 498.243 393.264 498.19C390.076 497.764 387.05 497.36 384.02 496.999L394.482 498.352ZM374.031 468.348C374.553 467.233 375.074 466.122 375.604 465.02L383.96 497.496C375.485 496.485 369.329 499.723 365.697 507.442L365.245 507.229C365.245 507.229 365.245 507.229 365.245 507.229C364.908 507.944 364.573 508.659 364.239 509.374C363.178 511.64 362.118 513.905 361.001 516.164C361.281 514.413 361.554 512.651 361.745 510.887C362.031 508.293 362.225 505.671 362.24 503.051L362.24 503.05C362.269 497.127 359.718 492.385 354.478 489.491L354.478 489.491C351.075 487.614 347.551 485.931 344.056 484.261C343.554 484.021 343.053 483.782 342.552 483.542C344.446 483.853 346.374 484.158 348.308 484.374C351.059 484.681 353.853 484.889 356.633 484.866C362.175 484.82 366.645 482.402 369.376 477.621C371.092 474.622 372.566 471.474 374.031 468.348Z" fill="black" stroke="#FFF0E3"/>
<path d="M716.186 287.197L716.186 287.198C715.871 289.002 715.58 290.818 715.288 292.639C714.572 297.101 713.852 301.586 712.778 305.975C711.081 312.921 706.398 317.535 699.53 319.57C696.069 320.597 692.508 321.337 688.961 321.937C688.961 321.937 688.961 321.937 688.961 321.937L688.878 321.444C686.074 321.92 683.249 322.248 680.468 322.57C679.871 322.639 679.276 322.708 678.684 322.778L716.186 287.197ZM716.186 287.197C716.204 287.093 716.221 286.992 716.236 286.892C716.325 287.564 716.413 288.237 716.502 288.91C716.923 292.123 717.345 295.346 717.888 298.542C719.151 306.011 721.043 311.111 724.569 314.663C728.096 318.216 733.184 320.148 740.655 321.466C743.423 321.954 746.228 322.291 749.018 322.626C750.298 322.78 751.575 322.934 752.843 323.101C751.934 323.236 751.037 323.368 750.15 323.498C746.012 324.108 742.086 324.686 738.169 325.319C732.613 326.218 728.134 328.269 724.814 331.531C721.494 334.793 719.372 339.229 718.463 344.826C718.298 345.847 718.134 346.867 717.971 347.888C717.401 351.447 716.831 355.007 716.163 358.585C716.155 358.519 716.147 358.453 716.139 358.386C715.835 355.821 715.529 353.242 715.095 350.692C714.528 347.325 713.838 343.958 712.923 340.658L712.923 340.658C710.862 333.237 706.021 328.223 698.493 326.472L698.493 326.472C693.572 325.331 688.572 324.478 683.608 323.63C682.539 323.448 681.471 323.265 680.407 323.081L716.186 287.197Z" fill="black" stroke="#FFF0E3"/>
<path d="M636.387 159.692C638.416 171.627 642.422 175.646 654.429 177.751M636.387 159.692C635.951 157.136 635.611 154.564 635.272 151.991C635.16 151.14 635.048 150.29 634.932 149.44C634.864 149.691 634.825 149.951 634.782 150.237C634.761 150.377 634.738 150.523 634.712 150.677L634.711 150.678C634.689 150.805 634.667 150.932 634.645 151.06M636.387 159.692L635.894 159.776M636.387 159.692L635.894 159.776C635.894 159.776 635.894 159.776 635.894 159.776M654.429 177.751L631.474 165.626M654.429 177.751C656.651 178.141 658.895 178.409 661.14 178.677C662.223 178.807 663.307 178.936 664.388 179.079M654.429 177.751L664.388 179.079M634.645 151.06C634.627 150.925 634.609 150.791 634.591 150.657C634.591 150.656 634.591 150.656 634.591 150.656C634.536 150.241 634.48 149.826 634.424 149.412C634.359 149.676 634.32 149.938 634.281 150.199C634.261 150.331 634.242 150.461 634.219 150.591C633.963 152.05 633.727 153.514 633.49 154.978C632.914 158.55 632.337 162.123 631.474 165.626M634.645 151.06C634.688 151.388 634.732 151.716 634.775 152.045C635.115 154.623 635.456 157.211 635.894 159.776M634.645 151.06L612.666 178.622M631.474 165.626L631.96 165.745C631.96 165.745 631.96 165.745 631.96 165.745L631.474 165.626ZM635.894 159.776C636.914 165.774 638.445 169.889 641.313 172.761C644.179 175.632 648.309 177.186 654.342 178.244L654.342 178.244C656.578 178.636 658.846 178.907 661.098 179.176C661.891 179.271 662.681 179.365 663.468 179.465M663.468 179.465C662.977 179.537 662.49 179.608 662.007 179.679C658.668 180.167 655.499 180.631 652.338 181.14M663.468 179.465C663.753 179.501 664.038 179.537 664.323 179.575L664.323 179.575C664.625 179.615 664.925 179.657 665.264 179.706L664.388 179.079M663.468 179.465C663.762 179.421 664.057 179.378 664.355 179.334C664.355 179.334 664.355 179.334 664.355 179.334C664.656 179.29 664.958 179.245 665.263 179.2C664.951 179.156 664.67 179.117 664.388 179.079M652.338 181.14C652.338 181.14 652.338 181.14 652.338 181.14L652.417 181.633L652.338 181.14ZM652.338 181.14C647.84 181.863 644.207 183.515 641.511 186.148C638.814 188.782 637.094 192.361 636.358 196.867M636.358 196.867C636.358 196.867 636.358 196.867 636.358 196.867L636.852 196.948L636.358 196.867ZM636.358 196.867C636.225 197.687 636.093 198.506 635.961 199.324C635.534 201.973 635.108 204.621 634.618 207.279M634.618 207.279C634.391 205.376 634.155 203.464 633.831 201.572M634.618 207.279C634.518 207.822 634.415 208.366 634.31 208.91C634.265 208.538 634.22 208.167 634.176 207.796C633.931 205.743 633.687 203.691 633.338 201.656M634.618 207.279C634.637 207.437 634.656 207.594 634.674 207.751C634.721 208.144 634.768 208.536 634.815 208.928L604.701 179.159C605.281 179.261 605.862 179.361 606.445 179.461M633.831 201.572C633.373 198.87 632.816 196.165 632.077 193.514L632.077 193.513C630.404 187.528 626.472 183.478 620.362 182.066L620.362 182.066C616.389 181.15 612.351 180.464 608.344 179.784C607.71 179.677 607.077 179.569 606.445 179.461M633.831 201.572C633.831 201.572 633.831 201.572 633.831 201.573L633.338 201.656M633.831 201.572C633.831 201.572 633.831 201.572 633.831 201.572L633.338 201.656M606.445 179.461C608.501 179.223 610.594 178.972 612.666 178.622M606.445 179.461C606.243 179.484 606.041 179.508 605.84 179.531C605.454 179.575 605.069 179.62 604.687 179.664C605.881 179.873 607.078 180.077 608.277 180.28C612.277 180.959 616.291 181.64 620.25 182.553C626.168 183.921 629.968 187.825 631.595 193.648C632.328 196.277 632.882 198.964 633.338 201.656M612.666 178.622L612.583 178.129L612.666 178.622C612.666 178.622 612.666 178.622 612.666 178.622ZM621.205 176.721L621.063 176.241L621.204 176.721C621.204 176.721 621.205 176.721 621.205 176.721Z" fill="#10B9C3" stroke="#FFF0E3"/>
<path d="M229.612 146.654C228.971 146.381 228.327 146.111 227.68 145.841C225.686 145.005 223.676 144.164 221.729 143.221L221.729 143.221C216.474 140.675 213.089 138.171 211.207 134.788C209.325 131.404 208.996 127.231 209.626 121.474L229.612 146.654ZM229.612 146.654C229.203 146.599 228.797 146.545 228.394 146.491C225.206 146.066 222.179 145.662 219.15 145.301L229.612 146.654ZM209.161 116.65C209.683 115.535 210.204 114.423 210.734 113.322L219.09 145.798C210.615 144.787 204.459 148.025 200.827 155.744L200.374 155.531C200.374 155.531 200.374 155.531 200.374 155.531C200.038 156.246 199.703 156.961 199.369 157.676C198.308 159.942 197.248 162.207 196.131 164.466C196.411 162.715 196.684 160.953 196.875 159.188C197.16 156.595 197.355 153.973 197.37 151.352L197.37 151.352C197.399 145.429 194.847 140.687 189.608 137.793L189.608 137.793C186.204 135.916 182.681 134.233 179.185 132.563C178.684 132.323 178.183 132.084 177.682 131.844C179.576 132.155 181.504 132.46 183.438 132.675C186.189 132.983 188.983 133.191 191.763 133.168C197.305 133.122 201.775 130.704 204.506 125.923C206.221 122.924 207.696 119.776 209.161 116.65Z" fill="#10B9C3" stroke="#FFF0E3"/>
<path d="M601.299 565.853C600.966 566.978 600.62 568.098 600.238 569.18C599.368 571.646 597.925 573.008 596.044 573.06C595.15 573.085 594.257 572.988 593.386 572.841M601.299 565.853L593.359 572.313M601.299 565.853C601.279 566.102 601.26 566.351 601.242 566.601L601.299 565.853ZM593.386 572.841L593.359 572.313M593.386 572.841C593.386 572.841 593.386 572.841 593.387 572.841L593.359 572.313M593.386 572.841C593.123 572.796 592.859 572.743 592.597 572.685M593.359 572.313C592.772 572.214 592.189 572.072 591.613 571.925C591.783 572.057 591.955 572.19 592.127 572.323C592.283 572.443 592.44 572.564 592.597 572.685M592.597 572.685C592.228 572.603 591.862 572.512 591.504 572.42C591.174 572.165 590.846 571.91 590.519 571.65L595.176 575.38C596.75 576.788 597.507 579.111 597.482 582.052C597.471 583.38 597.403 584.712 597.307 586.033M592.597 572.685C593.539 573.414 594.492 574.164 595.409 574.984L595.41 574.984C597.195 576.58 597.972 579.146 597.946 582.167L597.946 582.167C597.936 583.306 597.885 584.445 597.811 585.575M597.811 585.575C597.756 585.765 597.701 585.954 597.646 586.144L597.307 586.033M597.811 585.575C597.855 585.425 597.899 585.275 597.942 585.124C598.049 584.757 598.155 584.39 598.263 584.023M597.811 585.575C597.798 585.778 597.784 585.981 597.769 586.184C597.725 586.8 597.669 587.417 597.609 588.031C597.873 587.147 598.13 586.263 598.386 585.379C598.493 585.013 598.599 584.647 598.706 584.281M597.307 586.033L597.646 586.144C597.483 586.702 597.319 587.259 597.153 587.816C597.211 587.223 597.264 586.629 597.307 586.033ZM598.263 584.023C598.263 584.023 598.263 584.023 598.263 584.023L598.706 584.281M598.263 584.023L598.706 584.281M598.263 584.023L598.706 584.281M607.749 579.249C607.856 579.322 607.963 579.395 608.069 579.469C608.183 579.549 608.296 579.631 608.437 579.732C608.536 579.803 608.648 579.884 608.783 579.98C608.495 579.923 608.212 579.866 607.934 579.809C607.934 579.809 607.934 579.809 607.934 579.809C607.844 579.791 607.755 579.772 607.666 579.754C607.458 579.611 607.245 579.468 607.03 579.323C606.875 579.218 606.719 579.113 606.562 579.006C606.809 579.056 607.058 579.107 607.31 579.159C607.455 579.189 607.602 579.219 607.749 579.249ZM604.414 578.589C604.414 578.589 604.414 578.589 604.414 578.589L604.437 579.115L604.414 578.589Z" fill="#BF9BD2" stroke="#FFF0E3"/>
</svg>
