<svg width="222" height="102" viewBox="0 0 222 102" fill="none" xmlns="http://www.w3.org/2000/svg">
<path d="M120.332 2.96291C109.273 4.663 98.1384 7.00834 87.2773 10.1385C76.4053 13.3167 65.5916 17.2203 55.2312 22.467C46.054 27.0616 20.9531 41.4265 27.4031 57.2306C34.1589 72.0829 63.3997 75.4259 76.0958 76.3137C91.9687 77.3159 107.964 76.4327 123.755 74.2429C140.377 71.9388 156.968 68.1885 173.084 62.5643C174.836 61.9259 177.761 60.8688 179.504 60.1618C188.003 56.7867 196.421 52.8809 204.291 47.593C208.198 44.9411 212.008 41.9573 215.304 38.2071C219.294 33.7223 223.001 26.8945 220.097 20.1674C215.052 8.77707 196.904 4.42274 187.255 2.58079C176.201 0.562656 164.961 -0.020819 153.798 0.118757C142.659 0.29952 131.397 1.32918 120.332 2.96062V2.96291ZM120.332 2.96291C129.165 1.6541 138.206 0.683927 147.088 0.281215C160.488 -0.359463 173.987 0.00892669 187.29 2.28105C197.168 4.07266 215.358 8.28283 220.559 19.8608C222.325 23.8399 221.879 28.4276 220.071 32.2511C212.553 47.9431 187.064 58.7523 173.348 63.7427C158.273 69.1267 142.766 72.7465 127.212 75.133C111.65 77.4303 95.9028 78.5172 80.2411 77.7621C65.9484 76.9841 39.1799 74.0485 28.9232 61.0381C26.4601 57.8645 25.1438 53.5467 26.1215 49.1467C29.0015 36.3354 45.923 26.8419 55.142 22.1855C67.6415 16.0282 80.6871 11.6601 93.8293 8.30342C102.535 6.05647 111.504 4.31062 120.332 2.96291Z" fill="white"/>
<path d="M17.7773 79.6042C17.235 78.9146 17.3904 77.8447 18.1238 77.2193C18.7964 76.6457 19.7183 76.6474 20.2862 77.184C30.271 66.9134 30.1735 64.2624 18.1332 47.4643C17.405 48.0077 16.4364 47.9383 15.9166 47.2773C15.3743 46.5876 15.5297 45.5178 16.2631 44.8923C16.9965 44.2668 18.0343 44.3191 18.5766 45.0087C19.0739 45.6412 18.9797 46.5871 18.3945 47.2235C31.7705 62.7572 34.2897 63.4503 45.7776 55.4141C45.4562 54.739 45.6548 53.8533 46.297 53.3056C47.0304 52.6801 48.0682 52.7323 48.6104 53.422C49.1527 54.1117 48.9973 55.1815 48.2639 55.8069C47.5723 56.3968 46.6165 56.3761 46.0518 55.7952C36.139 66.0281 36.4035 68.6978 48.7465 85.8647C49.4629 85.379 50.3861 85.4633 50.8891 86.1029C51.4314 86.7926 51.2759 87.8624 50.5425 88.4879C49.8091 89.1133 48.7714 89.0611 48.2291 88.3714C47.7037 87.7032 47.838 86.6872 48.5091 86.0552C34.7117 69.9855 32.3021 69.2705 20.5503 77.5199C20.9434 78.2054 20.7633 79.147 20.0907 79.7207C19.3573 80.3461 18.3195 80.2939 17.7773 79.6042Z" fill="#10B9C3"/>
<path d="M46.6014 33.98V30.94H56.9614V33.98H46.6014ZM54.3214 22L61.2414 37H57.2214L51.2814 23.58H52.4414L46.5214 37H42.5014L49.4214 22H54.3214ZM62.5086 21.6H66.2086V29.06L65.7086 30.04V32.72L66.2086 33.68V37H62.5086V21.6ZM64.9686 31.3C65.1686 30.0733 65.5486 29.0133 66.1086 28.12C66.6686 27.2267 67.3753 26.5333 68.2286 26.04C69.0819 25.5333 70.0419 25.28 71.1086 25.28C72.2286 25.28 73.2086 25.5333 74.0486 26.04C74.9019 26.5467 75.5686 27.2533 76.0486 28.16C76.5286 29.0533 76.7686 30.1 76.7686 31.3C76.7686 32.5 76.5286 33.5533 76.0486 34.46C75.5686 35.3533 74.9019 36.0533 74.0486 36.56C73.2086 37.0667 72.2286 37.32 71.1086 37.32C70.0419 37.32 69.0819 37.0733 68.2286 36.58C67.3753 36.0733 66.6686 35.3733 66.1086 34.48C65.5486 33.5733 65.1686 32.5133 64.9686 31.3ZM73.0086 31.3C73.0086 30.6867 72.8819 30.1467 72.6286 29.68C72.3753 29.2 72.0219 28.8267 71.5686 28.56C71.1286 28.28 70.6153 28.14 70.0286 28.14C69.4419 28.14 68.8819 28.28 68.3486 28.56C67.8286 28.8267 67.3686 29.2 66.9686 29.68C66.5819 30.1467 66.2819 30.6867 66.0686 31.3C66.2819 31.9133 66.5819 32.46 66.9686 32.94C67.3686 33.4067 67.8286 33.78 68.3486 34.06C68.8819 34.3267 69.4419 34.46 70.0286 34.46C70.6153 34.46 71.1286 34.3267 71.5686 34.06C72.0219 33.78 72.3753 33.4067 72.6286 32.94C72.8819 32.46 73.0086 31.9133 73.0086 31.3ZM91.4619 33.34C91.4619 34.1933 91.2085 34.92 90.7019 35.52C90.2085 36.1067 89.4819 36.5533 88.5219 36.86C87.5619 37.1667 86.3952 37.32 85.0219 37.32C83.6219 37.32 82.3952 37.1467 81.3419 36.8C80.2885 36.4533 79.4685 35.9667 78.8819 35.34C78.2952 34.7133 77.9819 33.9867 77.9419 33.16H81.7219C81.8019 33.4933 81.9885 33.7867 82.2819 34.04C82.5885 34.2933 82.9819 34.4867 83.4619 34.62C83.9419 34.74 84.5085 34.8 85.1619 34.8C86.0419 34.8 86.7085 34.7067 87.1619 34.52C87.6152 34.3333 87.8419 34.0533 87.8419 33.68C87.8419 33.4 87.6752 33.1867 87.3419 33.04C87.0219 32.8933 86.4419 32.7867 85.6019 32.72L83.5219 32.56C82.2152 32.4533 81.1752 32.2467 80.4019 31.94C79.6285 31.62 79.0752 31.2133 78.7419 30.72C78.4219 30.2267 78.2619 29.6733 78.2619 29.06C78.2619 28.22 78.5219 27.5267 79.0419 26.98C79.5752 26.42 80.3085 26 81.2419 25.72C82.1752 25.4267 83.2685 25.28 84.5219 25.28C85.7752 25.28 86.8885 25.4467 87.8619 25.78C88.8485 26.1133 89.6352 26.5733 90.2219 27.16C90.8219 27.7467 91.1619 28.4333 91.2419 29.22H87.4619C87.4085 28.9533 87.2619 28.7067 87.0219 28.48C86.7952 28.2533 86.4619 28.0733 86.0219 27.94C85.5952 27.7933 85.0352 27.72 84.3419 27.72C83.5552 27.72 82.9552 27.8067 82.5419 27.98C82.1285 28.1533 81.9219 28.4067 81.9219 28.74C81.9219 28.9933 82.0485 29.2 82.3019 29.36C82.5552 29.5067 83.0352 29.6067 83.7419 29.66L86.4419 29.86C87.7219 29.9667 88.7219 30.1733 89.4419 30.48C90.1752 30.7733 90.6952 31.16 91.0019 31.64C91.3085 32.12 91.4619 32.6867 91.4619 33.34ZM99.9494 37.32C98.5094 37.32 97.2494 37.0667 96.1694 36.56C95.0894 36.0533 94.2494 35.3467 93.6494 34.44C93.0494 33.5333 92.7494 32.4867 92.7494 31.3C92.7494 30.1 93.0494 29.0533 93.6494 28.16C94.2494 27.2533 95.0894 26.5467 96.1694 26.04C97.2627 25.5333 98.5227 25.28 99.9494 25.28C101.389 25.28 102.649 25.5333 103.729 26.04C104.809 26.5467 105.649 27.2533 106.249 28.16C106.863 29.0533 107.169 30.1 107.169 31.3C107.169 32.5 106.863 33.5533 106.249 34.46C105.649 35.3533 104.809 36.0533 103.729 36.56C102.649 37.0667 101.389 37.32 99.9494 37.32ZM99.9494 34.52C100.683 34.52 101.303 34.3933 101.809 34.14C102.329 33.8733 102.723 33.5 102.989 33.02C103.269 32.54 103.409 31.9667 103.409 31.3C103.409 30.6333 103.269 30.06 102.989 29.58C102.723 29.0867 102.329 28.7133 101.809 28.46C101.303 28.1933 100.683 28.06 99.9494 28.06C99.2427 28.06 98.6294 28.1933 98.1094 28.46C97.5894 28.7133 97.1894 29.0867 96.9094 29.58C96.6294 30.06 96.4894 30.6333 96.4894 31.3C96.4894 31.9667 96.6294 32.54 96.9094 33.02C97.1894 33.5 97.5894 33.8733 98.1094 34.14C98.6294 34.3933 99.2427 34.52 99.9494 34.52ZM113.873 37.3C112.819 37.3 111.913 37.0867 111.153 36.66C110.406 36.22 109.833 35.6 109.433 34.8C109.046 34 108.853 33.0533 108.853 31.96V25.6H112.573V31.42C112.573 32.34 112.793 33.0467 113.233 33.54C113.673 34.0333 114.306 34.28 115.133 34.28C115.746 34.28 116.266 34.1533 116.693 33.9C117.119 33.6467 117.446 33.28 117.673 32.8C117.913 32.32 118.033 31.7533 118.033 31.1L119.193 31.72C119.059 32.92 118.739 33.94 118.233 34.78C117.739 35.6067 117.113 36.2333 116.353 36.66C115.606 37.0867 114.779 37.3 113.873 37.3ZM118.753 37L118.033 32.56V25.6H121.733V33.12L122.473 37H118.753ZM123.785 25.6H127.545L128.225 29.7V37H124.505V29.38L123.785 25.6ZM133.665 25.44V28.64C133.305 28.56 132.945 28.5 132.585 28.46C132.238 28.42 131.918 28.4 131.625 28.4C130.985 28.4 130.405 28.5333 129.885 28.8C129.378 29.0533 128.972 29.46 128.665 30.02C128.372 30.58 128.225 31.3067 128.225 32.2L127.485 31.28C127.578 30.4667 127.732 29.7 127.945 28.98C128.158 28.26 128.452 27.6267 128.825 27.08C129.198 26.52 129.658 26.08 130.205 25.76C130.765 25.44 131.438 25.28 132.225 25.28C132.452 25.28 132.692 25.2933 132.945 25.32C133.198 25.3467 133.438 25.3867 133.665 25.44ZM145.272 37L144.772 32.7L145.452 31.34L144.792 29.62L145.712 21.6H149.572L148.432 31.02L149.112 37H145.272ZM146.132 31.3C145.932 32.5133 145.552 33.5733 144.992 34.48C144.432 35.3733 143.726 36.0733 142.872 36.58C142.019 37.0733 141.059 37.32 139.992 37.32C138.872 37.32 137.886 37.0667 137.032 36.56C136.192 36.0533 135.532 35.3533 135.052 34.46C134.572 33.5533 134.332 32.5 134.332 31.3C134.332 30.1 134.572 29.0533 135.052 28.16C135.532 27.2533 136.192 26.5467 137.032 26.04C137.886 25.5333 138.872 25.28 139.992 25.28C141.059 25.28 142.019 25.5333 142.872 26.04C143.726 26.5333 144.432 27.2267 144.992 28.12C145.566 29.0133 145.946 30.0733 146.132 31.3ZM138.092 31.3C138.092 31.9133 138.219 32.46 138.472 32.94C138.726 33.4067 139.072 33.78 139.512 34.06C139.966 34.3267 140.486 34.46 141.072 34.46C141.659 34.46 142.212 34.3267 142.732 34.06C143.266 33.78 143.732 33.4067 144.132 32.94C144.532 32.46 144.832 31.9133 145.032 31.3C144.832 30.6867 144.532 30.1467 144.132 29.68C143.732 29.2 143.266 28.8267 142.732 28.56C142.212 28.28 141.659 28.14 141.072 28.14C140.486 28.14 139.966 28.28 139.512 28.56C139.072 28.8267 138.726 29.2 138.472 29.68C138.219 30.1467 138.092 30.6867 138.092 31.3ZM154.2 35.45C154.146 35.6567 154.146 35.8167 154.2 35.93C154.253 36.0433 154.366 36.1167 154.54 36.15L155.11 36.27C155.243 36.3033 155.34 36.35 155.4 36.41C155.46 36.4633 155.49 36.5367 155.49 36.63C155.49 36.7433 155.436 36.8333 155.33 36.9C155.23 36.9667 155.096 37 154.93 37H150.64C150.453 37 150.326 36.97 150.26 36.91C150.193 36.8433 150.16 36.76 150.16 36.66C150.16 36.5533 150.196 36.4667 150.27 36.4C150.35 36.3333 150.456 36.2833 150.59 36.25L151.21 36.14C151.41 36.1 151.566 36.0233 151.68 35.91C151.8 35.7967 151.896 35.63 151.97 35.41C152.036 35.15 152.13 34.7967 152.25 34.35C152.376 33.8967 152.516 33.3833 152.67 32.81C152.83 32.2367 152.996 31.63 153.17 30.99C153.343 30.35 153.513 29.71 153.68 29.07C153.853 28.43 154.013 27.82 154.16 27.24C154.313 26.6533 154.446 26.1267 154.56 25.66C154.673 25.1933 154.756 24.8167 154.81 24.53C154.856 24.3433 154.856 24.1967 154.81 24.09C154.763 23.9833 154.65 23.91 154.47 23.87L153.87 23.74C153.73 23.7 153.63 23.6533 153.57 23.6C153.516 23.54 153.49 23.4633 153.49 23.37C153.49 23.25 153.546 23.16 153.66 23.1C153.773 23.0333 153.936 23 154.15 23H158.39C158.57 23 158.69 23.03 158.75 23.09C158.816 23.1433 158.85 23.22 158.85 23.32C158.85 23.4267 158.81 23.5133 158.73 23.58C158.656 23.6467 158.543 23.7 158.39 23.74L157.72 23.9C157.533 23.94 157.39 24.0033 157.29 24.09C157.19 24.1767 157.106 24.32 157.04 24.52C156.96 24.82 156.853 25.2167 156.72 25.71C156.586 26.1967 156.436 26.7467 156.27 27.36C156.103 27.9667 155.93 28.6033 155.75 29.27C155.57 29.93 155.393 30.5867 155.22 31.24C155.053 31.8867 154.896 32.4933 154.75 33.06C154.61 33.62 154.49 34.11 154.39 34.53C154.29 34.95 154.226 35.2567 154.2 35.45ZM158.776 29.7C158.702 29.66 158.666 29.59 158.666 29.49C158.666 29.39 158.706 29.27 158.786 29.13C159.032 28.6833 159.379 28.33 159.826 28.07C160.279 27.8033 160.779 27.67 161.326 27.67C161.686 27.67 161.969 27.75 162.176 27.91C162.389 28.07 162.496 28.31 162.496 28.63C162.496 28.8233 162.456 29.0467 162.376 29.3C162.302 29.5533 162.196 29.8533 162.056 30.2C161.916 30.5467 161.746 30.9633 161.546 31.45C161.346 31.93 161.126 32.4967 160.886 33.15L160.846 32.75C161.226 31.7967 161.656 30.9933 162.136 30.34C162.616 29.6867 163.109 29.1633 163.616 28.77C164.129 28.3767 164.629 28.0967 165.116 27.93C165.602 27.7567 166.046 27.67 166.446 27.67C166.999 27.67 167.389 27.79 167.616 28.03C167.849 28.2633 167.956 28.5967 167.936 29.03C167.916 29.4633 167.799 29.9833 167.586 30.59L166.246 34.42C166.052 34.9533 165.982 35.3267 166.036 35.54C166.089 35.7467 166.202 35.85 166.376 35.85C166.489 35.85 166.609 35.8133 166.736 35.74C166.862 35.6667 167.016 35.54 167.196 35.36C167.309 35.2667 167.399 35.2067 167.466 35.18C167.539 35.1533 167.606 35.1567 167.666 35.19C167.746 35.2233 167.782 35.29 167.776 35.39C167.776 35.49 167.739 35.6133 167.666 35.76C167.419 36.2 167.072 36.5533 166.626 36.82C166.186 37.08 165.692 37.21 165.146 37.21C164.739 37.21 164.432 37.1167 164.226 36.93C164.019 36.7433 163.909 36.4733 163.896 36.12C163.889 35.76 163.972 35.33 164.146 34.83L165.526 30.87C165.766 30.21 165.846 29.7467 165.766 29.48C165.692 29.2133 165.476 29.08 165.116 29.08C164.842 29.08 164.529 29.17 164.176 29.35C163.822 29.53 163.456 29.8 163.076 30.16C162.702 30.52 162.342 30.9767 161.996 31.53C161.656 32.0767 161.352 32.7167 161.086 33.45C160.946 33.8567 160.832 34.1867 160.746 34.44C160.666 34.6933 160.609 34.8933 160.576 35.04C160.542 35.1867 160.526 35.3133 160.526 35.42C160.526 35.5933 160.552 35.74 160.606 35.86C160.659 35.9733 160.686 36.1133 160.686 36.28C160.686 36.56 160.532 36.7867 160.226 36.96C159.926 37.1267 159.519 37.21 159.006 37.21C158.592 37.21 158.342 37.0567 158.256 36.75C158.169 36.4367 158.242 35.96 158.476 35.32L160.206 30.46C160.392 29.9267 160.462 29.5567 160.416 29.35C160.369 29.1367 160.252 29.03 160.066 29.03C159.959 29.03 159.839 29.0667 159.706 29.14C159.579 29.2067 159.426 29.3333 159.246 29.52C159.139 29.6133 159.049 29.6733 158.976 29.7C158.909 29.7267 158.842 29.7267 158.776 29.7ZM170.514 29.7C170.441 29.66 170.404 29.59 170.404 29.49C170.404 29.39 170.444 29.27 170.524 29.13C170.771 28.6833 171.117 28.33 171.564 28.07C172.017 27.8033 172.517 27.67 173.064 27.67C173.424 27.67 173.707 27.75 173.914 27.91C174.127 28.07 174.234 28.31 174.234 28.63C174.234 28.8233 174.194 29.0467 174.114 29.3C174.041 29.5533 173.934 29.8533 173.794 30.2C173.654 30.5467 173.484 30.9633 173.284 31.45C173.084 31.93 172.864 32.4967 172.624 33.15L172.584 32.75C172.964 31.7967 173.394 30.9933 173.874 30.34C174.354 29.6867 174.847 29.1633 175.354 28.77C175.867 28.3767 176.367 28.0967 176.854 27.93C177.341 27.7567 177.784 27.67 178.184 27.67C178.737 27.67 179.127 27.79 179.354 28.03C179.587 28.2633 179.694 28.5967 179.674 29.03C179.654 29.4633 179.537 29.9833 179.324 30.59L177.984 34.42C177.791 34.9533 177.721 35.3267 177.774 35.54C177.827 35.7467 177.941 35.85 178.114 35.85C178.227 35.85 178.347 35.8133 178.474 35.74C178.601 35.6667 178.754 35.54 178.934 35.36C179.047 35.2667 179.137 35.2067 179.204 35.18C179.277 35.1533 179.344 35.1567 179.404 35.19C179.484 35.2233 179.521 35.29 179.514 35.39C179.514 35.49 179.477 35.6133 179.404 35.76C179.157 36.2 178.811 36.5533 178.364 36.82C177.924 37.08 177.431 37.21 176.884 37.21C176.477 37.21 176.171 37.1167 175.964 36.93C175.757 36.7433 175.647 36.4733 175.634 36.12C175.627 35.76 175.711 35.33 175.884 34.83L177.264 30.87C177.504 30.21 177.584 29.7467 177.504 29.48C177.431 29.2133 177.214 29.08 176.854 29.08C176.581 29.08 176.267 29.17 175.914 29.35C175.561 29.53 175.194 29.8 174.814 30.16C174.441 30.52 174.081 30.9767 173.734 31.53C173.394 32.0767 173.091 32.7167 172.824 33.45C172.684 33.8567 172.571 34.1867 172.484 34.44C172.404 34.6933 172.347 34.8933 172.314 35.04C172.281 35.1867 172.264 35.3133 172.264 35.42C172.264 35.5933 172.291 35.74 172.344 35.86C172.397 35.9733 172.424 36.1133 172.424 36.28C172.424 36.56 172.271 36.7867 171.964 36.96C171.664 37.1267 171.257 37.21 170.744 37.21C170.331 37.21 170.081 37.0567 169.994 36.75C169.907 36.4367 169.981 35.96 170.214 35.32L171.944 30.46C172.131 29.9267 172.201 29.5567 172.154 29.35C172.107 29.1367 171.991 29.03 171.804 29.03C171.697 29.03 171.577 29.0667 171.444 29.14C171.317 29.2067 171.164 29.3333 170.984 29.52C170.877 29.6133 170.787 29.6733 170.714 29.7C170.647 29.7267 170.581 29.7267 170.514 29.7ZM187.052 27.66C187.872 27.68 188.569 27.88 189.142 28.26C189.716 28.64 190.126 29.1767 190.372 29.87C190.626 30.5567 190.666 31.38 190.492 32.34C190.359 33.0667 190.122 33.7333 189.782 34.34C189.442 34.9467 189.022 35.4667 188.522 35.9C188.022 36.3333 187.462 36.6667 186.842 36.9C186.229 37.1267 185.576 37.23 184.882 37.21C184.089 37.1833 183.406 36.9833 182.832 36.61C182.266 36.2367 181.859 35.7033 181.612 35.01C181.372 34.3167 181.336 33.49 181.502 32.53C181.642 31.7967 181.879 31.1267 182.212 30.52C182.546 29.9133 182.959 29.3933 183.452 28.96C183.952 28.5267 184.506 28.1967 185.112 27.97C185.726 27.7367 186.372 27.6333 187.052 27.66ZM184.922 36.4C185.209 36.4267 185.492 36.3867 185.772 36.28C186.052 36.1733 186.319 36.0067 186.572 35.78C186.832 35.5467 187.069 35.2633 187.282 34.93C187.502 34.59 187.696 34.1967 187.862 33.75C188.036 33.3033 188.176 32.8133 188.282 32.28C188.449 31.4533 188.502 30.7667 188.442 30.22C188.382 29.6667 188.229 29.2467 187.982 28.96C187.742 28.6667 187.419 28.5033 187.012 28.47C186.726 28.4367 186.446 28.4733 186.172 28.58C185.906 28.6867 185.646 28.8567 185.392 29.09C185.146 29.3167 184.912 29.6 184.692 29.94C184.479 30.28 184.289 30.6733 184.122 31.12C183.956 31.56 183.819 32.05 183.712 32.59C183.546 33.4167 183.489 34.1067 183.542 34.66C183.602 35.2067 183.752 35.6233 183.992 35.91C184.232 36.1967 184.542 36.36 184.922 36.4ZM193.166 35.97C193.166 35.75 193.179 35.4633 193.206 35.11C193.233 34.75 193.266 34.3533 193.306 33.92C193.346 33.48 193.386 33.0333 193.426 32.58C193.466 32.12 193.499 31.6833 193.526 31.27C193.559 30.85 193.576 30.48 193.576 30.16C193.583 29.84 193.543 29.6 193.456 29.44C193.376 29.28 193.253 29.2 193.086 29.2C192.953 29.2 192.833 29.2467 192.726 29.34C192.626 29.4333 192.536 29.58 192.456 29.78C192.389 29.9267 192.326 30.03 192.266 30.09C192.206 30.1433 192.136 30.17 192.056 30.17C191.969 30.17 191.899 30.1367 191.846 30.07C191.793 29.9967 191.779 29.89 191.806 29.75C191.859 29.4233 191.996 29.1067 192.216 28.8C192.443 28.4867 192.733 28.23 193.086 28.03C193.446 27.8233 193.846 27.72 194.286 27.72C194.786 27.72 195.129 27.8833 195.316 28.21C195.509 28.5367 195.606 29.0367 195.606 29.71C195.606 30.0167 195.593 30.3733 195.566 30.78C195.539 31.1867 195.509 31.61 195.476 32.05C195.449 32.4833 195.416 32.9067 195.376 33.32C195.343 33.7267 195.313 34.0933 195.286 34.42C195.266 34.74 195.256 34.9833 195.256 35.15C195.263 35.4567 195.299 35.67 195.366 35.79C195.439 35.91 195.549 35.97 195.696 35.97C195.883 35.97 196.113 35.86 196.386 35.64C196.659 35.4133 196.943 35.11 197.236 34.73C197.536 34.3433 197.816 33.9133 198.076 33.44C198.336 32.9667 198.549 32.48 198.716 31.98C198.883 31.48 198.969 31 198.976 30.54C198.989 30.3333 198.969 30.1767 198.916 30.07C198.863 29.9633 198.756 29.8367 198.596 29.69C198.449 29.5567 198.336 29.4133 198.256 29.26C198.176 29.1067 198.143 28.9233 198.156 28.71C198.169 28.4167 198.283 28.17 198.496 27.97C198.716 27.77 198.993 27.67 199.326 27.67C199.693 27.67 199.976 27.7967 200.176 28.05C200.383 28.2967 200.476 28.68 200.456 29.2C200.436 29.9533 200.296 30.7133 200.036 31.48C199.776 32.24 199.433 32.9667 199.006 33.66C198.579 34.3467 198.099 34.9567 197.566 35.49C197.039 36.0233 196.496 36.4467 195.936 36.76C195.376 37.0667 194.836 37.22 194.316 37.22C193.936 37.22 193.649 37.12 193.456 36.92C193.269 36.72 193.173 36.4033 193.166 35.97ZM208.898 34.42C208.758 34.9667 208.711 35.3433 208.758 35.55C208.804 35.7567 208.908 35.86 209.068 35.86C209.188 35.86 209.308 35.8233 209.428 35.75C209.548 35.6767 209.701 35.5533 209.888 35.38C209.994 35.28 210.081 35.2167 210.148 35.19C210.221 35.1633 210.288 35.1667 210.348 35.2C210.428 35.24 210.464 35.31 210.458 35.41C210.458 35.5033 210.421 35.6233 210.348 35.77C210.108 36.21 209.764 36.56 209.318 36.82C208.878 37.08 208.424 37.21 207.958 37.21C207.571 37.21 207.284 37.1133 207.098 36.92C206.911 36.7267 206.818 36.4467 206.818 36.08C206.818 35.9267 206.828 35.7567 206.848 35.57C206.874 35.3833 206.921 35.1533 206.988 34.88C207.054 34.6 207.148 34.2567 207.268 33.85C207.388 33.4367 207.541 32.9333 207.728 32.34L207.908 32.66C207.548 33.6267 207.111 34.45 206.598 35.13C206.084 35.8033 205.528 36.32 204.928 36.68C204.328 37.0333 203.714 37.21 203.088 37.21C202.388 37.21 201.844 36.9733 201.458 36.5C201.078 36.0267 200.938 35.28 201.038 34.26C201.098 33.5933 201.264 32.94 201.538 32.3C201.818 31.66 202.181 31.06 202.628 30.5C203.081 29.94 203.601 29.4467 204.188 29.02C204.774 28.5933 205.411 28.2633 206.098 28.03C206.791 27.79 207.511 27.67 208.258 27.67C208.818 27.67 209.284 27.71 209.658 27.79C210.031 27.87 210.308 27.98 210.488 28.12C210.674 28.2533 210.761 28.4067 210.748 28.58C210.734 28.72 210.684 28.83 210.598 28.91C210.518 28.99 210.434 29.07 210.348 29.15C210.261 29.2233 210.198 29.3333 210.158 29.48L208.898 34.42ZM203.138 34.19C203.071 34.8833 203.124 35.37 203.298 35.65C203.478 35.93 203.731 36.07 204.058 36.07C204.358 36.07 204.674 35.9533 205.008 35.72C205.348 35.4867 205.688 35.1567 206.028 34.73C206.374 34.3033 206.698 33.8133 206.998 33.26C207.298 32.7 207.561 32.0967 207.788 31.45C208.014 30.8033 208.181 30.1367 208.288 29.45C208.348 29.11 208.328 28.8633 208.228 28.71C208.128 28.55 207.958 28.47 207.718 28.47C207.304 28.47 206.888 28.5767 206.468 28.79C206.054 29.0033 205.661 29.3 205.288 29.68C204.914 30.0533 204.574 30.4833 204.268 30.97C203.961 31.4567 203.708 31.9767 203.508 32.53C203.314 33.0767 203.191 33.63 203.138 34.19ZM213.997 28.91L213.207 28.76C213.1 28.72 213.02 28.6667 212.967 28.6C212.913 28.5333 212.887 28.46 212.887 28.38C212.887 28.26 212.933 28.1667 213.027 28.1C213.127 28.0333 213.26 28 213.427 28H214.317C214.47 28 214.603 27.97 214.717 27.91C214.837 27.8433 214.947 27.7533 215.047 27.64L216.147 26.17C216.233 26.0633 216.323 25.9933 216.417 25.96C216.51 25.92 216.607 25.9 216.707 25.9C216.827 25.9 216.917 25.93 216.977 25.99C217.037 26.05 217.067 26.1367 217.067 26.25C217.067 26.3233 217.057 26.42 217.037 26.54C217.017 26.6533 216.983 26.7867 216.937 26.94L214.747 34.14C214.54 34.82 214.487 35.2733 214.587 35.5C214.693 35.72 214.927 35.83 215.287 35.83C215.593 35.83 215.88 35.7633 216.147 35.63C216.42 35.49 216.7 35.2567 216.987 34.93C217.067 34.8433 217.133 34.7867 217.187 34.76C217.247 34.7267 217.307 34.71 217.367 34.71C217.44 34.71 217.497 34.7367 217.537 34.79C217.583 34.8433 217.6 34.9133 217.587 35C217.56 35.22 217.45 35.46 217.257 35.72C217.07 35.9733 216.817 36.2133 216.497 36.44C216.177 36.66 215.807 36.8433 215.387 36.99C214.967 37.1367 214.517 37.21 214.037 37.21C213.53 37.21 213.147 37.1067 212.887 36.9C212.633 36.6867 212.493 36.38 212.467 35.98C212.44 35.5733 212.517 35.0733 212.697 34.48L214.147 29.85C214.247 29.5167 214.283 29.2867 214.257 29.16C214.237 29.0333 214.15 28.95 213.997 28.91ZM215.687 28.86L215.957 28.02H218.647C218.88 28.02 218.997 28.12 218.997 28.32C218.997 28.4867 218.923 28.62 218.777 28.72C218.63 28.8133 218.433 28.86 218.187 28.86H215.687ZM127.435 57.87C127.435 57.87 127.558 57.8233 127.805 57.73C128.051 57.6367 128.375 57.5167 128.775 57.37C129.175 57.2167 129.605 57.0533 130.065 56.88C130.531 56.7 130.985 56.5267 131.425 56.36C131.865 56.1933 132.248 56.0467 132.575 55.92L132.345 56.24C132.398 56.0733 132.438 55.8867 132.465 55.68C132.491 55.4733 132.508 55.2267 132.515 54.94C132.515 54.4933 132.418 54.1267 132.225 53.84C132.038 53.5533 131.785 53.41 131.465 53.41C131.151 53.41 130.828 53.5267 130.495 53.76C130.161 53.9933 129.848 54.32 129.555 54.74C129.261 55.16 129.015 55.65 128.815 56.21C128.615 56.77 128.491 57.3767 128.445 58.03C128.371 59.01 128.518 59.75 128.885 60.25C129.258 60.7433 129.788 60.99 130.475 60.99C130.888 60.99 131.285 60.9133 131.665 60.76C132.051 60.6 132.398 60.37 132.705 60.07C133.018 59.7633 133.261 59.3933 133.435 58.96C133.528 58.82 133.611 58.7267 133.685 58.68C133.758 58.6267 133.838 58.6 133.925 58.6C134.031 58.6 134.111 58.6467 134.165 58.74C134.225 58.8267 134.235 58.9667 134.195 59.16C134.088 59.68 133.838 60.1733 133.445 60.64C133.058 61.1067 132.541 61.4867 131.895 61.78C131.248 62.0667 130.478 62.21 129.585 62.21C128.818 62.21 128.185 62.0667 127.685 61.78C127.185 61.4867 126.821 61.0733 126.595 60.54C126.368 60 126.281 59.3533 126.335 58.6C126.388 57.8 126.571 57.0433 126.885 56.33C127.205 55.6167 127.621 54.9867 128.135 54.44C128.648 53.8867 129.225 53.4533 129.865 53.14C130.511 52.82 131.188 52.66 131.895 52.66C132.421 52.66 132.861 52.7633 133.215 52.97C133.568 53.1767 133.838 53.4533 134.025 53.8C134.211 54.14 134.318 54.5233 134.345 54.95C134.358 55.05 134.388 55.1333 134.435 55.2C134.481 55.2667 134.548 55.3 134.635 55.3C134.728 55.2933 134.798 55.31 134.845 55.35C134.891 55.39 134.915 55.45 134.915 55.53C134.915 55.63 134.871 55.7233 134.785 55.81C134.698 55.8967 134.531 55.9833 134.285 56.07C134.025 56.1567 133.678 56.28 133.245 56.44C132.818 56.5933 132.351 56.7633 131.845 56.95C131.338 57.13 130.828 57.3133 130.315 57.5C129.808 57.68 129.341 57.8467 128.915 58C128.495 58.1533 128.155 58.2767 127.895 58.37C127.641 58.4633 127.515 58.51 127.515 58.51L127.435 57.87ZM68.7452 72H72.5252V87H68.7452V72ZM74.5272 75.6H78.2272L78.9672 80.04V87H75.2472V79.48L74.5272 75.6ZM83.2272 75.28C84.3205 75.28 85.2472 75.5 86.0072 75.94C86.7805 76.38 87.3672 77 87.7672 77.8C88.1805 78.5867 88.3872 79.5333 88.3872 80.64V87H84.6672V81.2C84.6672 80.2533 84.4339 79.54 83.9672 79.06C83.5005 78.5667 82.8339 78.32 81.9672 78.32C81.3539 78.32 80.8205 78.4533 80.3672 78.72C79.9139 78.9733 79.5672 79.34 79.3272 79.82C79.0872 80.2867 78.9672 80.8467 78.9672 81.5L77.7872 80.88C77.9339 79.6667 78.2605 78.6467 78.7672 77.82C79.2872 76.9933 79.9272 76.3667 80.6872 75.94C81.4605 75.5 82.3072 75.28 83.2272 75.28ZM101.054 87L100.554 82.7L101.234 81.34L100.574 79.62L101.494 71.6H105.354L104.214 81.02L104.894 87H101.054ZM101.914 81.3C101.714 82.5133 101.334 83.5733 100.774 84.48C100.214 85.3733 99.5069 86.0733 98.6536 86.58C97.8003 87.0733 96.8403 87.32 95.7736 87.32C94.6536 87.32 93.6669 87.0667 92.8136 86.56C91.9736 86.0533 91.3136 85.3533 90.8336 84.46C90.3536 83.5533 90.1136 82.5 90.1136 81.3C90.1136 80.1 90.3536 79.0533 90.8336 78.16C91.3136 77.2533 91.9736 76.5467 92.8136 76.04C93.6669 75.5333 94.6536 75.28 95.7736 75.28C96.8403 75.28 97.8003 75.5333 98.6536 76.04C99.5069 76.5333 100.214 77.2267 100.774 78.12C101.347 79.0133 101.727 80.0733 101.914 81.3ZM93.8736 81.3C93.8736 81.9133 94.0003 82.46 94.2536 82.94C94.5069 83.4067 94.8536 83.78 95.2936 84.06C95.7469 84.3267 96.2669 84.46 96.8536 84.46C97.4403 84.46 97.9936 84.3267 98.5136 84.06C99.0469 83.78 99.5136 83.4067 99.9136 82.94C100.314 82.46 100.614 81.9133 100.814 81.3C100.614 80.6867 100.314 80.1467 99.9136 79.68C99.5136 79.2 99.0469 78.8267 98.5136 78.56C97.9936 78.28 97.4403 78.14 96.8536 78.14C96.2669 78.14 95.7469 78.28 95.2936 78.56C94.8536 78.8267 94.5069 79.2 94.2536 79.68C94.0003 80.1467 93.8736 80.6867 93.8736 81.3ZM111.861 87.3C110.807 87.3 109.901 87.0867 109.141 86.66C108.394 86.22 107.821 85.6 107.421 84.8C107.034 84 106.841 83.0533 106.841 81.96V75.6H110.561V81.42C110.561 82.34 110.781 83.0467 111.221 83.54C111.661 84.0333 112.294 84.28 113.121 84.28C113.734 84.28 114.254 84.1533 114.681 83.9C115.107 83.6467 115.434 83.28 115.661 82.8C115.901 82.32 116.021 81.7533 116.021 81.1L117.181 81.72C117.047 82.92 116.727 83.94 116.221 84.78C115.727 85.6067 115.101 86.2333 114.341 86.66C113.594 87.0867 112.767 87.3 111.861 87.3ZM116.741 87L116.021 82.56V75.6H119.721V83.12L120.461 87H116.741ZM135.153 83.34C135.153 84.1933 134.9 84.92 134.393 85.52C133.9 86.1067 133.173 86.5533 132.213 86.86C131.253 87.1667 130.087 87.32 128.713 87.32C127.313 87.32 126.087 87.1467 125.033 86.8C123.98 86.4533 123.16 85.9667 122.573 85.34C121.987 84.7133 121.673 83.9867 121.633 83.16H125.413C125.493 83.4933 125.68 83.7867 125.973 84.04C126.28 84.2933 126.673 84.4867 127.153 84.62C127.633 84.74 128.2 84.8 128.853 84.8C129.733 84.8 130.4 84.7067 130.853 84.52C131.307 84.3333 131.533 84.0533 131.533 83.68C131.533 83.4 131.367 83.1867 131.033 83.04C130.713 82.8933 130.133 82.7867 129.293 82.72L127.213 82.56C125.907 82.4533 124.867 82.2467 124.093 81.94C123.32 81.62 122.767 81.2133 122.433 80.72C122.113 80.2267 121.953 79.6733 121.953 79.06C121.953 78.22 122.213 77.5267 122.733 76.98C123.267 76.42 124 76 124.933 75.72C125.867 75.4267 126.96 75.28 128.213 75.28C129.467 75.28 130.58 75.4467 131.553 75.78C132.54 76.1133 133.327 76.5733 133.913 77.16C134.513 77.7467 134.853 78.4333 134.933 79.22H131.153C131.1 78.9533 130.953 78.7067 130.713 78.48C130.487 78.2533 130.153 78.0733 129.713 77.94C129.287 77.7933 128.727 77.72 128.033 77.72C127.247 77.72 126.647 77.8067 126.233 77.98C125.82 78.1533 125.613 78.4067 125.613 78.74C125.613 78.9933 125.74 79.2 125.993 79.36C126.247 79.5067 126.727 79.6067 127.433 79.66L130.133 79.86C131.413 79.9667 132.413 80.1733 133.133 80.48C133.867 80.7733 134.387 81.16 134.693 81.64C135 82.12 135.153 82.6867 135.153 83.34ZM135.745 78.36V76.74L138.105 75.88L139.685 72.56H141.825V75.6H146.745V78.36H141.825V82.12C141.825 82.9733 141.998 83.5733 142.345 83.92C142.691 84.2533 143.311 84.42 144.205 84.42C144.765 84.42 145.265 84.3733 145.705 84.28C146.145 84.1733 146.558 84.0333 146.945 83.86V86.68C146.545 86.84 146.018 86.9867 145.365 87.12C144.725 87.2533 144.058 87.32 143.365 87.32C142.151 87.32 141.151 87.1267 140.365 86.74C139.591 86.3533 139.018 85.8133 138.645 85.12C138.285 84.4133 138.105 83.5867 138.105 82.64V78.36H135.745ZM148.121 75.6H151.881L152.561 79.7V87H148.841V79.38L148.121 75.6ZM158.001 75.44V78.64C157.641 78.56 157.281 78.5 156.921 78.46C156.574 78.42 156.254 78.4 155.961 78.4C155.321 78.4 154.741 78.5333 154.221 78.8C153.714 79.0533 153.308 79.46 153.001 80.02C152.708 80.58 152.561 81.3067 152.561 82.2L151.821 81.28C151.914 80.4667 152.068 79.7 152.281 78.98C152.494 78.26 152.788 77.6267 153.161 77.08C153.534 76.52 153.994 76.08 154.541 75.76C155.101 75.44 155.774 75.28 156.561 75.28C156.788 75.28 157.028 75.2933 157.281 75.32C157.534 75.3467 157.774 75.3867 158.001 75.44ZM159.501 75.44L161.341 75.82L163.201 75.44V87H159.501V75.44ZM161.361 74.4C160.707 74.4 160.174 74.2333 159.761 73.9C159.347 73.5533 159.141 73.1 159.141 72.54C159.141 71.9667 159.347 71.5133 159.761 71.18C160.174 70.8467 160.707 70.68 161.361 70.68C162.027 70.68 162.561 70.8467 162.961 71.18C163.361 71.5133 163.561 71.9667 163.561 72.54C163.561 73.1 163.361 73.5533 162.961 73.9C162.561 74.2333 162.027 74.4 161.361 74.4ZM172.135 87.32C170.775 87.32 169.555 87.0667 168.475 86.56C167.408 86.0533 166.568 85.3467 165.955 84.44C165.341 83.5333 165.035 82.4733 165.035 81.26C165.035 80.0733 165.328 79.0333 165.915 78.14C166.501 77.2467 167.308 76.5467 168.335 76.04C169.375 75.5333 170.548 75.28 171.855 75.28C173.188 75.28 174.335 75.5733 175.295 76.16C176.255 76.7467 176.995 77.5733 177.515 78.64C178.035 79.7067 178.295 80.96 178.295 82.4H168.015V80.06H176.255L174.915 80.9C174.875 80.2733 174.721 79.7467 174.455 79.32C174.201 78.88 173.861 78.5467 173.435 78.32C173.008 78.08 172.501 77.96 171.915 77.96C171.275 77.96 170.721 78.0867 170.255 78.34C169.788 78.5933 169.421 78.9467 169.155 79.4C168.901 79.8533 168.775 80.38 168.775 80.98C168.775 81.74 168.941 82.3867 169.275 82.92C169.621 83.4533 170.115 83.86 170.755 84.14C171.408 84.42 172.201 84.56 173.135 84.56C173.988 84.56 174.841 84.4467 175.695 84.22C176.548 83.98 177.315 83.6467 177.995 83.22V85.64C177.221 86.1733 176.335 86.5867 175.335 86.88C174.348 87.1733 173.281 87.32 172.135 87.32ZM192.985 83.34C192.985 84.1933 192.732 84.92 192.225 85.52C191.732 86.1067 191.005 86.5533 190.045 86.86C189.085 87.1667 187.919 87.32 186.545 87.32C185.145 87.32 183.919 87.1467 182.865 86.8C181.812 86.4533 180.992 85.9667 180.405 85.34C179.819 84.7133 179.505 83.9867 179.465 83.16H183.245C183.325 83.4933 183.512 83.7867 183.805 84.04C184.112 84.2933 184.505 84.4867 184.985 84.62C185.465 84.74 186.032 84.8 186.685 84.8C187.565 84.8 188.232 84.7067 188.685 84.52C189.139 84.3333 189.365 84.0533 189.365 83.68C189.365 83.4 189.199 83.1867 188.865 83.04C188.545 82.8933 187.965 82.7867 187.125 82.72L185.045 82.56C183.739 82.4533 182.699 82.2467 181.925 81.94C181.152 81.62 180.599 81.2133 180.265 80.72C179.945 80.2267 179.785 79.6733 179.785 79.06C179.785 78.22 180.045 77.5267 180.565 76.98C181.099 76.42 181.832 76 182.765 75.72C183.699 75.4267 184.792 75.28 186.045 75.28C187.299 75.28 188.412 75.4467 189.385 75.78C190.372 76.1133 191.159 76.5733 191.745 77.16C192.345 77.7467 192.685 78.4333 192.765 79.22H188.985C188.932 78.9533 188.785 78.7067 188.545 78.48C188.319 78.2533 187.985 78.0733 187.545 77.94C187.119 77.7933 186.559 77.72 185.865 77.72C185.079 77.72 184.479 77.8067 184.065 77.98C183.652 78.1533 183.445 78.4067 183.445 78.74C183.445 78.9933 183.572 79.2 183.825 79.36C184.079 79.5067 184.559 79.6067 185.265 79.66L187.965 79.86C189.245 79.9667 190.245 80.1733 190.965 80.48C191.699 80.7733 192.219 81.16 192.525 81.64C192.832 82.12 192.985 82.6867 192.985 83.34Z" fill="#FFF0E3"/>
</svg>
