<svg width="195" height="71" viewBox="0 0 195 71" fill="none" xmlns="http://www.w3.org/2000/svg">
<path d="M102.176 2.24742C93.2467 3.53696 84.2566 5.31594 75.487 7.69022C66.7086 10.101 57.9773 13.0619 49.6119 17.0416C42.202 20.5266 21.9347 31.4227 27.1426 43.4104C32.5975 54.6761 56.2075 57.2118 66.4587 57.8852C79.275 58.6454 92.1898 57.9755 104.94 56.3145C118.362 54.5668 131.757 51.7221 144.771 47.456C146.185 46.9718 148.547 46.17 149.954 45.6337C156.817 43.0737 163.614 40.111 169.968 36.1001C173.123 34.0885 176.199 31.8253 178.86 28.9807C182.082 25.5789 185.074 20.3999 182.73 15.2973C178.657 6.65755 164.003 3.35472 156.212 1.95757C147.287 0.426784 138.212 -0.0157916 129.198 0.0900794C120.204 0.227191 111.111 1.00821 102.176 2.24568V2.24742ZM102.176 2.24742C109.309 1.25466 116.608 0.51877 123.78 0.213306C134.6 -0.272659 145.5 0.00677104 156.24 1.73021C164.216 3.08918 178.904 6.28266 183.103 15.0647C184.529 18.0829 184.169 21.5628 182.709 24.463C176.639 36.3656 156.058 44.5646 144.984 48.3499C132.811 52.4337 120.29 55.1794 107.731 56.9896C95.1664 58.7322 82.4515 59.5566 69.8058 58.9838C58.2654 58.3937 36.6516 56.167 28.37 46.2984C26.3812 43.8911 25.3184 40.6161 26.1078 37.2785C28.4332 27.561 42.0962 20.36 49.5399 16.8281C59.6324 12.1576 70.1659 8.84439 80.7773 6.29828C87.8065 4.59393 95.0488 3.26968 102.176 2.24742Z" fill="black"/>
<path d="M13.6213 53.8405C13.1854 53.3241 13.3104 52.5231 13.8999 52.0547C14.4406 51.6252 15.1816 51.6266 15.6381 52.0283C23.6644 44.3383 23.586 42.3534 13.9074 29.7759C13.3221 30.1828 12.5435 30.1308 12.1256 29.6359C11.6897 29.1195 11.8147 28.3184 12.4042 27.8501C12.9938 27.3818 13.8279 27.4209 14.2638 27.9373C14.6636 28.4109 14.5879 29.1191 14.1175 29.5956C24.8697 41.2264 26.8948 41.7453 36.1292 35.7283C35.8708 35.2228 36.0305 34.5596 36.5467 34.1495C37.1363 33.6812 37.9704 33.7203 38.4063 34.2367C38.8423 34.7531 38.7173 35.5541 38.1278 36.0224C37.5718 36.464 36.8035 36.4486 36.3496 36.0136C28.3812 43.6754 28.5939 45.6744 38.5157 58.5279C39.0916 58.1643 39.8337 58.2274 40.238 58.7063C40.6739 59.2227 40.549 60.0237 39.9594 60.492C39.3699 60.9603 38.5357 60.9212 38.0998 60.4048C37.6774 59.9045 37.7854 59.1438 38.3249 58.6706C27.2339 46.6385 25.297 46.1031 15.8504 52.2798C16.1664 52.7931 16.0216 53.4981 15.481 53.9276C14.8914 54.3959 14.0572 54.3568 13.6213 53.8405Z" fill="#BF9BD2"/>
<path d="M21.6845 28.282V25.546H31.0085V28.282H21.6845ZM28.6325 17.5L34.8605 31H31.2425L25.8965 18.922H26.9405L21.6125 31H17.9945L24.2225 17.5H28.6325ZM36.001 17.14H39.331V23.854L38.881 24.736V27.148L39.331 28.012V31H36.001V17.14ZM38.215 25.87C38.395 24.766 38.737 23.812 39.241 23.008C39.745 22.204 40.381 21.58 41.149 21.136C41.917 20.68 42.781 20.452 43.741 20.452C44.749 20.452 45.631 20.68 46.387 21.136C47.155 21.592 47.755 22.228 48.187 23.044C48.619 23.848 48.835 24.79 48.835 25.87C48.835 26.95 48.619 27.898 48.187 28.714C47.755 29.518 47.155 30.148 46.387 30.604C45.631 31.06 44.749 31.288 43.741 31.288C42.781 31.288 41.917 31.066 41.149 30.622C40.381 30.166 39.745 29.536 39.241 28.732C38.737 27.916 38.395 26.962 38.215 25.87ZM45.451 25.87C45.451 25.318 45.337 24.832 45.109 24.412C44.881 23.98 44.563 23.644 44.155 23.404C43.759 23.152 43.297 23.026 42.769 23.026C42.241 23.026 41.737 23.152 41.257 23.404C40.789 23.644 40.375 23.98 40.015 24.412C39.667 24.832 39.397 25.318 39.205 25.87C39.397 26.422 39.667 26.914 40.015 27.346C40.375 27.766 40.789 28.102 41.257 28.354C41.737 28.594 42.241 28.714 42.769 28.714C43.297 28.714 43.759 28.594 44.155 28.354C44.563 28.102 44.881 27.766 45.109 27.346C45.337 26.914 45.451 26.422 45.451 25.87ZM62.0589 27.706C62.0589 28.474 61.8309 29.128 61.3749 29.668C60.9309 30.196 60.2769 30.598 59.4129 30.874C58.5489 31.15 57.4989 31.288 56.2629 31.288C55.0029 31.288 53.8989 31.132 52.9509 30.82C52.0029 30.508 51.2649 30.07 50.7369 29.506C50.2089 28.942 49.9269 28.288 49.8909 27.544H53.2929C53.3649 27.844 53.5329 28.108 53.7969 28.336C54.0729 28.564 54.4269 28.738 54.8589 28.858C55.2909 28.966 55.8009 29.02 56.3889 29.02C57.1809 29.02 57.7809 28.936 58.1889 28.768C58.5969 28.6 58.8009 28.348 58.8009 28.012C58.8009 27.76 58.6509 27.568 58.3509 27.436C58.0629 27.304 57.5409 27.208 56.7849 27.148L54.9129 27.004C53.7369 26.908 52.8009 26.722 52.1049 26.446C51.4089 26.158 50.9109 25.792 50.6109 25.348C50.3229 24.904 50.1789 24.406 50.1789 23.854C50.1789 23.098 50.4129 22.474 50.8809 21.982C51.3609 21.478 52.0209 21.1 52.8609 20.848C53.7009 20.584 54.6849 20.452 55.8129 20.452C56.9409 20.452 57.9429 20.602 58.8189 20.902C59.7069 21.202 60.4149 21.616 60.9429 22.144C61.4829 22.672 61.7889 23.29 61.8609 23.998H58.4589C58.4109 23.758 58.2789 23.536 58.0629 23.332C57.8589 23.128 57.5589 22.966 57.1629 22.846C56.7789 22.714 56.2749 22.648 55.6509 22.648C54.9429 22.648 54.4029 22.726 54.0309 22.882C53.6589 23.038 53.4729 23.266 53.4729 23.566C53.4729 23.794 53.5869 23.98 53.8149 24.124C54.0429 24.256 54.4749 24.346 55.1109 24.394L57.5409 24.574C58.6929 24.67 59.5929 24.856 60.2409 25.132C60.9009 25.396 61.3689 25.744 61.6449 26.176C61.9209 26.608 62.0589 27.118 62.0589 27.706ZM69.6977 31.288C68.4017 31.288 67.2677 31.06 66.2957 30.604C65.3237 30.148 64.5677 29.512 64.0277 28.696C63.4877 27.88 63.2177 26.938 63.2177 25.87C63.2177 24.79 63.4877 23.848 64.0277 23.044C64.5677 22.228 65.3237 21.592 66.2957 21.136C67.2797 20.68 68.4137 20.452 69.6977 20.452C70.9937 20.452 72.1277 20.68 73.0997 21.136C74.0717 21.592 74.8277 22.228 75.3677 23.044C75.9197 23.848 76.1957 24.79 76.1957 25.87C76.1957 26.95 75.9197 27.898 75.3677 28.714C74.8277 29.518 74.0717 30.148 73.0997 30.604C72.1277 31.06 70.9937 31.288 69.6977 31.288ZM69.6977 28.768C70.3577 28.768 70.9157 28.654 71.3717 28.426C71.8397 28.186 72.1937 27.85 72.4337 27.418C72.6857 26.986 72.8117 26.47 72.8117 25.87C72.8117 25.27 72.6857 24.754 72.4337 24.322C72.1937 23.878 71.8397 23.542 71.3717 23.314C70.9157 23.074 70.3577 22.954 69.6977 22.954C69.0617 22.954 68.5097 23.074 68.0417 23.314C67.5737 23.542 67.2137 23.878 66.9617 24.322C66.7097 24.754 66.5837 25.27 66.5837 25.87C66.5837 26.47 66.7097 26.986 66.9617 27.418C67.2137 27.85 67.5737 28.186 68.0417 28.426C68.5097 28.654 69.0617 28.768 69.6977 28.768ZM82.2285 31.27C81.2805 31.27 80.4645 31.078 79.7805 30.694C79.1085 30.298 78.5925 29.74 78.2325 29.02C77.8845 28.3 77.7105 27.448 77.7105 26.464V20.74H81.0585V25.978C81.0585 26.806 81.2565 27.442 81.6525 27.886C82.0485 28.33 82.6185 28.552 83.3625 28.552C83.9145 28.552 84.3825 28.438 84.7665 28.21C85.1505 27.982 85.4445 27.652 85.6485 27.22C85.8645 26.788 85.9725 26.278 85.9725 25.69L87.0165 26.248C86.8965 27.328 86.6085 28.246 86.1525 29.002C85.7085 29.746 85.1445 30.31 84.4605 30.694C83.7885 31.078 83.0445 31.27 82.2285 31.27ZM86.6205 31L85.9725 27.004V20.74H89.3025V27.508L89.9685 31H86.6205ZM91.1498 20.74H94.5338L95.1458 24.43V31H91.7978V24.142L91.1498 20.74ZM100.042 20.596V23.476C99.7178 23.404 99.3938 23.35 99.0698 23.314C98.7578 23.278 98.4698 23.26 98.2058 23.26C97.6298 23.26 97.1078 23.38 96.6398 23.62C96.1838 23.848 95.8178 24.214 95.5418 24.718C95.2778 25.222 95.1458 25.876 95.1458 26.68L94.4798 25.852C94.5638 25.12 94.7018 24.43 94.8938 23.782C95.0858 23.134 95.3498 22.564 95.6858 22.072C96.0218 21.568 96.4358 21.172 96.9278 20.884C97.4318 20.596 98.0378 20.452 98.7458 20.452C98.9498 20.452 99.1658 20.464 99.3938 20.488C99.6218 20.512 99.8378 20.548 100.042 20.596ZM110.488 31L110.038 27.13L110.65 25.906L110.056 24.358L110.884 17.14H114.358L113.332 25.618L113.944 31H110.488ZM111.262 25.87C111.082 26.962 110.74 27.916 110.236 28.732C109.732 29.536 109.096 30.166 108.328 30.622C107.56 31.066 106.696 31.288 105.736 31.288C104.728 31.288 103.84 31.06 103.072 30.604C102.316 30.148 101.722 29.518 101.29 28.714C100.858 27.898 100.642 26.95 100.642 25.87C100.642 24.79 100.858 23.848 101.29 23.044C101.722 22.228 102.316 21.592 103.072 21.136C103.84 20.68 104.728 20.452 105.736 20.452C106.696 20.452 107.56 20.68 108.328 21.136C109.096 21.58 109.732 22.204 110.236 23.008C110.752 23.812 111.094 24.766 111.262 25.87ZM104.026 25.87C104.026 26.422 104.14 26.914 104.368 27.346C104.596 27.766 104.908 28.102 105.304 28.354C105.712 28.594 106.18 28.714 106.708 28.714C107.236 28.714 107.734 28.594 108.202 28.354C108.682 28.102 109.102 27.766 109.462 27.346C109.822 26.914 110.092 26.422 110.272 25.87C110.092 25.318 109.822 24.832 109.462 24.412C109.102 23.98 108.682 23.644 108.202 23.404C107.734 23.152 107.236 23.026 106.708 23.026C106.18 23.026 105.712 23.152 105.304 23.404C104.908 23.644 104.596 23.98 104.368 24.412C104.14 24.832 104.026 25.318 104.026 25.87ZM119.621 29.308C119.579 29.47 119.582 29.596 119.63 29.686C119.678 29.77 119.759 29.83 119.873 29.866L120.305 29.992C120.431 30.04 120.524 30.1 120.584 30.172C120.65 30.238 120.683 30.328 120.683 30.442C120.683 30.61 120.62 30.745 120.494 30.847C120.374 30.949 120.2 31 119.972 31H115.463C115.223 31 115.061 30.955 114.977 30.865C114.899 30.775 114.86 30.661 114.86 30.523C114.86 30.379 114.905 30.262 114.995 30.172C115.085 30.076 115.193 30.007 115.319 29.965L115.787 29.848C115.925 29.806 116.03 29.743 116.102 29.659C116.18 29.569 116.249 29.425 116.309 29.227C116.369 29.023 116.45 28.732 116.552 28.354C116.66 27.976 116.78 27.541 116.912 27.049C117.044 26.557 117.182 26.038 117.326 25.492C117.476 24.94 117.623 24.391 117.767 23.845C117.911 23.293 118.043 22.774 118.163 22.288C118.289 21.796 118.4 21.361 118.496 20.983C118.592 20.599 118.661 20.308 118.703 20.11C118.739 19.954 118.739 19.831 118.703 19.741C118.667 19.651 118.58 19.585 118.442 19.543L118.01 19.408C117.878 19.354 117.782 19.294 117.722 19.228C117.662 19.156 117.632 19.066 117.632 18.958C117.632 18.784 117.692 18.649 117.812 18.553C117.938 18.451 118.124 18.4 118.37 18.4H122.852C123.092 18.4 123.251 18.445 123.329 18.535C123.407 18.619 123.446 18.73 123.446 18.868C123.446 19.012 123.401 19.132 123.311 19.228C123.227 19.318 123.116 19.387 122.978 19.435L122.501 19.561C122.363 19.609 122.261 19.672 122.195 19.75C122.129 19.828 122.063 19.966 121.997 20.164C121.931 20.374 121.841 20.683 121.727 21.091C121.613 21.499 121.484 21.967 121.34 22.495C121.202 23.023 121.055 23.578 120.899 24.16C120.749 24.742 120.602 25.315 120.458 25.879C120.314 26.443 120.182 26.965 120.062 27.445C119.942 27.925 119.843 28.33 119.765 28.66C119.687 28.99 119.639 29.206 119.621 29.308ZM122.87 24.862C122.78 24.814 122.732 24.724 122.726 24.592C122.72 24.454 122.771 24.283 122.879 24.079C123.149 23.575 123.554 23.17 124.094 22.864C124.634 22.552 125.258 22.396 125.966 22.396C126.404 22.396 126.743 22.486 126.983 22.666C127.223 22.846 127.343 23.107 127.343 23.449C127.343 23.653 127.298 23.884 127.208 24.142C127.118 24.394 127.007 24.67 126.875 24.97C126.743 25.264 126.608 25.579 126.47 25.915C126.332 26.251 126.221 26.602 126.137 26.968L125.93 26.788C126.254 25.96 126.623 25.264 127.037 24.7C127.451 24.136 127.883 23.686 128.333 23.35C128.789 23.008 129.239 22.765 129.683 22.621C130.133 22.471 130.553 22.396 130.943 22.396C131.495 22.396 131.9 22.516 132.158 22.756C132.416 22.99 132.551 23.32 132.563 23.746C132.575 24.172 132.482 24.664 132.284 25.222L131.285 28.093C131.135 28.525 131.081 28.828 131.123 29.002C131.165 29.17 131.252 29.254 131.384 29.254C131.468 29.254 131.549 29.23 131.627 29.182C131.711 29.134 131.816 29.056 131.942 28.948C132.068 28.84 132.17 28.777 132.248 28.759C132.332 28.735 132.413 28.741 132.491 28.777C132.587 28.831 132.638 28.924 132.644 29.056C132.65 29.188 132.599 29.359 132.491 29.569C132.227 30.067 131.831 30.472 131.303 30.784C130.775 31.09 130.157 31.243 129.449 31.243C128.927 31.243 128.54 31.141 128.288 30.937C128.042 30.727 127.913 30.43 127.901 30.046C127.889 29.662 127.97 29.215 128.144 28.705L129.152 25.825C129.326 25.357 129.389 25.018 129.341 24.808C129.299 24.592 129.143 24.484 128.873 24.484C128.687 24.484 128.483 24.547 128.261 24.673C128.045 24.793 127.823 24.973 127.595 25.213C127.373 25.447 127.157 25.738 126.947 26.086C126.743 26.428 126.557 26.821 126.389 27.265C126.275 27.577 126.179 27.847 126.101 28.075C126.023 28.303 125.963 28.498 125.921 28.66C125.885 28.822 125.867 28.963 125.867 29.083C125.867 29.263 125.897 29.425 125.957 29.569C126.023 29.713 126.056 29.881 126.056 30.073C126.056 30.427 125.837 30.712 125.399 30.928C124.967 31.138 124.367 31.243 123.599 31.243C123.041 31.243 122.702 31.063 122.582 30.703C122.462 30.337 122.522 29.824 122.762 29.164L124.085 25.546C124.247 25.114 124.304 24.814 124.256 24.646C124.208 24.478 124.118 24.394 123.986 24.394C123.908 24.394 123.827 24.415 123.743 24.457C123.659 24.499 123.551 24.58 123.419 24.7C123.293 24.802 123.188 24.865 123.104 24.889C123.026 24.907 122.948 24.898 122.87 24.862ZM134.348 24.862C134.258 24.814 134.21 24.724 134.204 24.592C134.198 24.454 134.249 24.283 134.357 24.079C134.627 23.575 135.032 23.17 135.572 22.864C136.112 22.552 136.736 22.396 137.444 22.396C137.882 22.396 138.221 22.486 138.461 22.666C138.701 22.846 138.821 23.107 138.821 23.449C138.821 23.653 138.776 23.884 138.686 24.142C138.596 24.394 138.485 24.67 138.353 24.97C138.221 25.264 138.086 25.579 137.948 25.915C137.81 26.251 137.699 26.602 137.615 26.968L137.408 26.788C137.732 25.96 138.101 25.264 138.515 24.7C138.929 24.136 139.361 23.686 139.811 23.35C140.267 23.008 140.717 22.765 141.161 22.621C141.611 22.471 142.031 22.396 142.421 22.396C142.973 22.396 143.378 22.516 143.636 22.756C143.894 22.99 144.029 23.32 144.041 23.746C144.053 24.172 143.96 24.664 143.762 25.222L142.763 28.093C142.613 28.525 142.559 28.828 142.601 29.002C142.643 29.17 142.73 29.254 142.862 29.254C142.946 29.254 143.027 29.23 143.105 29.182C143.189 29.134 143.294 29.056 143.42 28.948C143.546 28.84 143.648 28.777 143.726 28.759C143.81 28.735 143.891 28.741 143.969 28.777C144.065 28.831 144.116 28.924 144.122 29.056C144.128 29.188 144.077 29.359 143.969 29.569C143.705 30.067 143.309 30.472 142.781 30.784C142.253 31.09 141.635 31.243 140.927 31.243C140.405 31.243 140.018 31.141 139.766 30.937C139.52 30.727 139.391 30.43 139.379 30.046C139.367 29.662 139.448 29.215 139.622 28.705L140.63 25.825C140.804 25.357 140.867 25.018 140.819 24.808C140.777 24.592 140.621 24.484 140.351 24.484C140.165 24.484 139.961 24.547 139.739 24.673C139.523 24.793 139.301 24.973 139.073 25.213C138.851 25.447 138.635 25.738 138.425 26.086C138.221 26.428 138.035 26.821 137.867 27.265C137.753 27.577 137.657 27.847 137.579 28.075C137.501 28.303 137.441 28.498 137.399 28.66C137.363 28.822 137.345 28.963 137.345 29.083C137.345 29.263 137.375 29.425 137.435 29.569C137.501 29.713 137.534 29.881 137.534 30.073C137.534 30.427 137.315 30.712 136.877 30.928C136.445 31.138 135.845 31.243 135.077 31.243C134.519 31.243 134.18 31.063 134.06 30.703C133.94 30.337 134 29.824 134.24 29.164L135.563 25.546C135.725 25.114 135.782 24.814 135.734 24.646C135.686 24.478 135.596 24.394 135.464 24.394C135.386 24.394 135.305 24.415 135.221 24.457C135.137 24.499 135.029 24.58 134.897 24.7C134.771 24.802 134.666 24.865 134.582 24.889C134.504 24.907 134.426 24.898 134.348 24.862ZM150.777 22.378C151.713 22.384 152.502 22.57 153.144 22.936C153.786 23.302 154.242 23.818 154.512 24.484C154.788 25.15 154.842 25.936 154.674 26.842C154.548 27.52 154.326 28.132 154.008 28.678C153.696 29.218 153.3 29.68 152.82 30.064C152.346 30.448 151.806 30.742 151.2 30.946C150.594 31.15 149.937 31.249 149.229 31.243C148.299 31.231 147.513 31.045 146.871 30.685C146.235 30.319 145.782 29.803 145.512 29.137C145.242 28.465 145.188 27.676 145.35 26.77C145.476 26.098 145.695 25.489 146.007 24.943C146.325 24.397 146.721 23.932 147.195 23.548C147.669 23.164 148.206 22.873 148.806 22.675C149.412 22.471 150.069 22.372 150.777 22.378ZM149.139 30.118C149.313 30.142 149.484 30.118 149.652 30.046C149.82 29.974 149.982 29.854 150.138 29.686C150.3 29.512 150.453 29.293 150.597 29.029C150.747 28.759 150.885 28.444 151.011 28.084C151.137 27.718 151.251 27.304 151.353 26.842C151.521 26.134 151.611 25.54 151.623 25.06C151.635 24.58 151.578 24.211 151.452 23.953C151.326 23.695 151.131 23.545 150.867 23.503C150.693 23.473 150.522 23.494 150.354 23.566C150.192 23.638 150.03 23.761 149.868 23.935C149.712 24.109 149.562 24.328 149.418 24.592C149.274 24.856 149.139 25.171 149.013 25.537C148.887 25.903 148.773 26.314 148.671 26.77C148.503 27.478 148.413 28.072 148.401 28.552C148.389 29.032 148.446 29.404 148.572 29.668C148.698 29.926 148.887 30.076 149.139 30.118ZM157.011 29.857C157.011 29.629 157.014 29.38 157.02 29.11C157.026 28.834 157.032 28.543 157.038 28.237C157.044 27.925 157.05 27.607 157.056 27.283C157.068 26.959 157.074 26.638 157.074 26.32C157.074 25.996 157.071 25.684 157.065 25.384C157.065 25.138 157.038 24.97 156.984 24.88C156.93 24.784 156.852 24.736 156.75 24.736C156.672 24.736 156.597 24.766 156.525 24.826C156.453 24.886 156.381 24.985 156.309 25.123C156.219 25.285 156.135 25.396 156.057 25.456C155.979 25.51 155.892 25.537 155.796 25.537C155.676 25.531 155.58 25.483 155.508 25.393C155.442 25.303 155.43 25.159 155.472 24.961C155.568 24.523 155.772 24.118 156.084 23.746C156.402 23.374 156.795 23.074 157.263 22.846C157.737 22.612 158.247 22.495 158.793 22.495C159.297 22.495 159.642 22.648 159.828 22.954C160.014 23.26 160.116 23.734 160.134 24.376C160.146 24.724 160.152 25.072 160.152 25.42C160.152 25.768 160.149 26.104 160.143 26.428C160.143 26.752 160.14 27.055 160.134 27.337C160.128 27.619 160.122 27.874 160.116 28.102C160.116 28.33 160.113 28.516 160.107 28.66C160.119 28.99 160.155 29.212 160.215 29.326C160.275 29.44 160.365 29.497 160.485 29.497C160.611 29.497 160.758 29.422 160.926 29.272C161.1 29.116 161.274 28.909 161.448 28.651C161.628 28.393 161.796 28.108 161.952 27.796C162.114 27.478 162.246 27.154 162.348 26.824C162.456 26.494 162.516 26.179 162.528 25.879C162.552 25.645 162.534 25.471 162.474 25.357C162.42 25.243 162.318 25.111 162.168 24.961C162.006 24.805 161.883 24.64 161.799 24.466C161.721 24.286 161.691 24.07 161.709 23.818C161.739 23.404 161.901 23.065 162.195 22.801C162.495 22.531 162.876 22.396 163.338 22.396C163.812 22.396 164.172 22.54 164.418 22.828C164.664 23.11 164.769 23.539 164.733 24.115C164.691 24.763 164.544 25.423 164.292 26.095C164.046 26.767 163.713 27.412 163.293 28.03C162.879 28.642 162.405 29.191 161.871 29.677C161.343 30.157 160.776 30.538 160.17 30.82C159.57 31.102 158.955 31.243 158.325 31.243C157.887 31.243 157.56 31.135 157.344 30.919C157.128 30.703 157.017 30.349 157.011 29.857ZM173.211 28.093C173.097 28.543 173.061 28.855 173.103 29.029C173.145 29.197 173.229 29.281 173.355 29.281C173.439 29.281 173.52 29.257 173.598 29.209C173.682 29.161 173.787 29.083 173.913 28.975C174.039 28.867 174.141 28.804 174.219 28.786C174.303 28.762 174.384 28.768 174.462 28.804C174.558 28.858 174.606 28.951 174.606 29.083C174.612 29.215 174.561 29.386 174.453 29.596C174.195 30.088 173.808 30.487 173.292 30.793C172.782 31.093 172.242 31.243 171.672 31.243C171.192 31.243 170.847 31.126 170.637 30.892C170.427 30.652 170.322 30.322 170.322 29.902C170.322 29.758 170.328 29.605 170.34 29.443C170.358 29.275 170.385 29.095 170.421 28.903C170.457 28.711 170.502 28.501 170.556 28.273C170.61 28.039 170.679 27.781 170.763 27.499L170.979 28.057C170.769 28.711 170.46 29.278 170.052 29.758C169.65 30.232 169.188 30.598 168.666 30.856C168.15 31.114 167.601 31.243 167.019 31.243C166.257 31.243 165.669 30.997 165.255 30.505C164.847 30.013 164.7 29.269 164.814 28.273C164.874 27.691 165.024 27.118 165.264 26.554C165.504 25.984 165.822 25.45 166.218 24.952C166.62 24.448 167.091 24.004 167.631 23.62C168.177 23.236 168.789 22.936 169.467 22.72C170.151 22.504 170.892 22.396 171.69 22.396C172.422 22.396 173.028 22.447 173.508 22.549C173.988 22.645 174.342 22.777 174.57 22.945C174.798 23.113 174.897 23.299 174.867 23.503C174.849 23.689 174.786 23.821 174.678 23.899C174.576 23.977 174.471 24.058 174.363 24.142C174.255 24.22 174.174 24.352 174.12 24.538L173.211 28.093ZM167.946 28.228C167.892 28.738 167.919 29.095 168.027 29.299C168.141 29.497 168.294 29.596 168.486 29.596C168.684 29.596 168.891 29.515 169.107 29.353C169.329 29.185 169.551 28.951 169.773 28.651C169.995 28.351 170.205 27.997 170.403 27.589C170.607 27.181 170.787 26.731 170.943 26.239C171.105 25.747 171.231 25.228 171.321 24.682C171.399 24.268 171.402 23.968 171.33 23.782C171.258 23.59 171.117 23.494 170.907 23.494C170.643 23.494 170.379 23.587 170.115 23.773C169.851 23.959 169.599 24.214 169.359 24.538C169.119 24.862 168.9 25.228 168.702 25.636C168.504 26.044 168.339 26.47 168.207 26.914C168.081 27.358 167.994 27.796 167.946 28.228ZM177.075 24.043L176.589 23.899C176.463 23.845 176.37 23.773 176.31 23.683C176.25 23.587 176.22 23.482 176.22 23.368C176.22 23.206 176.286 23.08 176.418 22.99C176.556 22.894 176.736 22.846 176.958 22.846H177.498C177.702 22.846 177.885 22.804 178.047 22.72C178.215 22.63 178.38 22.501 178.542 22.333L179.847 20.956C179.967 20.83 180.087 20.743 180.207 20.695C180.333 20.641 180.468 20.614 180.612 20.614C180.786 20.614 180.915 20.659 180.999 20.749C181.083 20.833 181.125 20.95 181.125 21.1C181.125 21.184 181.113 21.304 181.089 21.46C181.065 21.61 181.023 21.784 180.963 21.982L179.244 27.985C179.106 28.471 179.079 28.807 179.163 28.993C179.247 29.173 179.436 29.263 179.73 29.263C179.94 29.263 180.138 29.212 180.324 29.11C180.516 29.008 180.717 28.84 180.927 28.606C181.029 28.498 181.116 28.426 181.188 28.39C181.26 28.348 181.335 28.327 181.413 28.327C181.515 28.327 181.596 28.363 181.656 28.435C181.716 28.507 181.737 28.609 181.719 28.741C181.677 29.011 181.548 29.293 181.332 29.587C181.122 29.875 180.84 30.145 180.486 30.397C180.132 30.649 179.721 30.853 179.253 31.009C178.791 31.165 178.287 31.243 177.741 31.243C177.201 31.243 176.787 31.135 176.499 30.919C176.217 30.697 176.058 30.367 176.022 29.929C175.986 29.485 176.067 28.924 176.265 28.246L177.219 25.096C177.327 24.742 177.366 24.493 177.336 24.349C177.312 24.199 177.225 24.097 177.075 24.043ZM179.757 24.061L180.126 22.891H182.322C182.604 22.891 182.745 23.026 182.745 23.296C182.745 23.53 182.649 23.716 182.457 23.854C182.265 23.992 182.007 24.061 181.683 24.061H179.757ZM184.284 27.238C184.284 27.238 184.389 27.205 184.599 27.139C184.809 27.073 185.079 26.992 185.409 26.896C185.745 26.794 186.105 26.683 186.489 26.563C186.873 26.443 187.248 26.329 187.614 26.221C187.98 26.107 188.295 26.008 188.559 25.924L188.253 26.275C188.319 26.065 188.37 25.816 188.406 25.528C188.448 25.24 188.472 24.919 188.478 24.565C188.478 24.217 188.418 23.944 188.298 23.746C188.178 23.542 188.01 23.44 187.794 23.44C187.59 23.44 187.386 23.521 187.182 23.683C186.978 23.839 186.786 24.067 186.606 24.367C186.426 24.661 186.273 25.015 186.147 25.429C186.021 25.843 185.934 26.302 185.886 26.806C185.814 27.67 185.925 28.324 186.219 28.768C186.519 29.206 186.981 29.425 187.605 29.425C187.935 29.425 188.244 29.368 188.532 29.254C188.82 29.14 189.087 28.978 189.333 28.768C189.579 28.552 189.792 28.303 189.972 28.021C190.122 27.835 190.248 27.709 190.35 27.643C190.458 27.577 190.572 27.547 190.692 27.553C190.836 27.559 190.95 27.625 191.034 27.751C191.118 27.871 191.124 28.069 191.052 28.345C190.926 28.849 190.668 29.323 190.278 29.767C189.888 30.205 189.363 30.562 188.703 30.838C188.049 31.108 187.257 31.243 186.327 31.243C185.439 31.243 184.719 31.093 184.167 30.793C183.621 30.493 183.234 30.07 183.006 29.524C182.778 28.978 182.694 28.327 182.754 27.571C182.82 26.851 183.003 26.179 183.303 25.555C183.609 24.925 184.011 24.373 184.509 23.899C185.013 23.425 185.589 23.056 186.237 22.792C186.891 22.522 187.593 22.387 188.343 22.387C188.943 22.387 189.435 22.492 189.819 22.702C190.203 22.906 190.494 23.185 190.692 23.539C190.896 23.887 191.022 24.28 191.07 24.718C191.088 24.838 191.118 24.946 191.16 25.042C191.208 25.132 191.274 25.189 191.358 25.213C191.448 25.231 191.514 25.267 191.556 25.321C191.604 25.369 191.628 25.441 191.628 25.537C191.628 25.663 191.577 25.783 191.475 25.897C191.379 26.005 191.193 26.098 190.917 26.176C190.647 26.248 190.302 26.347 189.882 26.473C189.462 26.593 189.006 26.725 188.514 26.869C188.022 27.013 187.533 27.157 187.047 27.301C186.561 27.445 186.114 27.574 185.706 27.688C185.304 27.802 184.98 27.898 184.734 27.976C184.494 28.048 184.374 28.084 184.374 28.084L184.284 27.238ZM49.3922 39.5H52.7942V53H49.3922V39.5ZM54.596 42.74H57.926L58.592 46.736V53H55.244V46.232L54.596 42.74ZM62.426 42.452C63.41 42.452 64.244 42.65 64.928 43.046C65.624 43.442 66.152 44 66.512 44.72C66.884 45.428 67.07 46.28 67.07 47.276V53H63.722V47.78C63.722 46.928 63.512 46.286 63.092 45.854C62.672 45.41 62.072 45.188 61.292 45.188C60.74 45.188 60.26 45.308 59.852 45.548C59.444 45.776 59.132 46.106 58.916 46.538C58.7 46.958 58.592 47.462 58.592 48.05L57.53 47.492C57.662 46.4 57.956 45.482 58.412 44.738C58.88 43.994 59.456 43.43 60.14 43.046C60.836 42.65 61.598 42.452 62.426 42.452ZM78.4698 53L78.0198 49.13L78.6318 47.906L78.0378 46.358L78.8658 39.14H82.3398L81.3138 47.618L81.9258 53H78.4698ZM79.2438 47.87C79.0638 48.962 78.7218 49.916 78.2178 50.732C77.7138 51.536 77.0778 52.166 76.3098 52.622C75.5418 53.066 74.6778 53.288 73.7178 53.288C72.7098 53.288 71.8218 53.06 71.0538 52.604C70.2978 52.148 69.7038 51.518 69.2718 50.714C68.8398 49.898 68.6238 48.95 68.6238 47.87C68.6238 46.79 68.8398 45.848 69.2718 45.044C69.7038 44.228 70.2978 43.592 71.0538 43.136C71.8218 42.68 72.7098 42.452 73.7178 42.452C74.6778 42.452 75.5418 42.68 76.3098 43.136C77.0778 43.58 77.7138 44.204 78.2178 45.008C78.7338 45.812 79.0758 46.766 79.2438 47.87ZM72.0078 47.87C72.0078 48.422 72.1218 48.914 72.3498 49.346C72.5778 49.766 72.8898 50.102 73.2858 50.354C73.6938 50.594 74.1618 50.714 74.6898 50.714C75.2178 50.714 75.7158 50.594 76.1838 50.354C76.6638 50.102 77.0838 49.766 77.4438 49.346C77.8038 48.914 78.0738 48.422 78.2538 47.87C78.0738 47.318 77.8038 46.832 77.4438 46.412C77.0838 45.98 76.6638 45.644 76.1838 45.404C75.7158 45.152 75.2178 45.026 74.6898 45.026C74.1618 45.026 73.6938 45.152 73.2858 45.404C72.8898 45.644 72.5778 45.98 72.3498 46.412C72.1218 46.832 72.0078 47.318 72.0078 47.87ZM88.1963 53.27C87.2483 53.27 86.4323 53.078 85.7483 52.694C85.0763 52.298 84.5603 51.74 84.2003 51.02C83.8523 50.3 83.6783 49.448 83.6783 48.464V42.74H87.0263V47.978C87.0263 48.806 87.2243 49.442 87.6203 49.886C88.0163 50.33 88.5863 50.552 89.3303 50.552C89.8823 50.552 90.3503 50.438 90.7343 50.21C91.1183 49.982 91.4123 49.652 91.6163 49.22C91.8323 48.788 91.9403 48.278 91.9403 47.69L92.9843 48.248C92.8643 49.328 92.5763 50.246 92.1203 51.002C91.6763 51.746 91.1123 52.31 90.4283 52.694C89.7563 53.078 89.0123 53.27 88.1963 53.27ZM92.5883 53L91.9403 49.004V42.74H95.2703V49.508L95.9363 53H92.5883ZM109.16 49.706C109.16 50.474 108.932 51.128 108.476 51.668C108.032 52.196 107.378 52.598 106.514 52.874C105.65 53.15 104.6 53.288 103.364 53.288C102.104 53.288 101 53.132 100.052 52.82C99.1035 52.508 98.3655 52.07 97.8375 51.506C97.3095 50.942 97.0275 50.288 96.9915 49.544H100.394C100.466 49.844 100.634 50.108 100.898 50.336C101.174 50.564 101.528 50.738 101.96 50.858C102.392 50.966 102.902 51.02 103.49 51.02C104.282 51.02 104.882 50.936 105.29 50.768C105.698 50.6 105.902 50.348 105.902 50.012C105.902 49.76 105.752 49.568 105.452 49.436C105.164 49.304 104.642 49.208 103.886 49.148L102.014 49.004C100.838 48.908 99.9015 48.722 99.2055 48.446C98.5095 48.158 98.0115 47.792 97.7115 47.348C97.4235 46.904 97.2795 46.406 97.2795 45.854C97.2795 45.098 97.5135 44.474 97.9815 43.982C98.4615 43.478 99.1215 43.1 99.9615 42.848C100.802 42.584 101.786 42.452 102.914 42.452C104.042 42.452 105.044 42.602 105.92 42.902C106.808 43.202 107.516 43.616 108.044 44.144C108.584 44.672 108.89 45.29 108.962 45.998H105.56C105.512 45.758 105.38 45.536 105.164 45.332C104.96 45.128 104.66 44.966 104.264 44.846C103.88 44.714 103.376 44.648 102.752 44.648C102.044 44.648 101.504 44.726 101.132 44.882C100.76 45.038 100.574 45.266 100.574 45.566C100.574 45.794 100.688 45.98 100.916 46.124C101.144 46.256 101.576 46.346 102.212 46.394L104.642 46.574C105.794 46.67 106.694 46.856 107.342 47.132C108.002 47.396 108.47 47.744 108.746 48.176C109.022 48.608 109.16 49.118 109.16 49.706ZM109.692 45.224V43.766L111.816 42.992L113.238 40.004H115.164V42.74H119.592V45.224H115.164V48.608C115.164 49.376 115.32 49.916 115.632 50.228C115.944 50.528 116.502 50.678 117.306 50.678C117.81 50.678 118.26 50.636 118.656 50.552C119.052 50.456 119.424 50.33 119.772 50.174V52.712C119.412 52.856 118.938 52.988 118.35 53.108C117.774 53.228 117.174 53.288 116.55 53.288C115.458 53.288 114.558 53.114 113.85 52.766C113.154 52.418 112.638 51.932 112.302 51.308C111.978 50.672 111.816 49.928 111.816 49.076V45.224H109.692ZM120.83 42.74H124.214L124.826 46.43V53H121.478V46.142L120.83 42.74ZM129.722 42.596V45.476C129.398 45.404 129.074 45.35 128.75 45.314C128.438 45.278 128.15 45.26 127.886 45.26C127.31 45.26 126.788 45.38 126.32 45.62C125.864 45.848 125.498 46.214 125.222 46.718C124.958 47.222 124.826 47.876 124.826 48.68L124.16 47.852C124.244 47.12 124.382 46.43 124.574 45.782C124.766 45.134 125.03 44.564 125.366 44.072C125.702 43.568 126.116 43.172 126.608 42.884C127.112 42.596 127.718 42.452 128.426 42.452C128.63 42.452 128.846 42.464 129.074 42.488C129.302 42.512 129.518 42.548 129.722 42.596ZM131.072 42.596L132.728 42.938L134.402 42.596V53H131.072V42.596ZM132.746 41.66C132.158 41.66 131.678 41.51 131.306 41.21C130.934 40.898 130.748 40.49 130.748 39.986C130.748 39.47 130.934 39.062 131.306 38.762C131.678 38.462 132.158 38.312 132.746 38.312C133.346 38.312 133.826 38.462 134.186 38.762C134.546 39.062 134.726 39.47 134.726 39.986C134.726 40.49 134.546 40.898 134.186 41.21C133.826 41.51 133.346 41.66 132.746 41.66ZM142.443 53.288C141.219 53.288 140.121 53.06 139.149 52.604C138.189 52.148 137.433 51.512 136.881 50.696C136.329 49.88 136.053 48.926 136.053 47.834C136.053 46.766 136.317 45.83 136.845 45.026C137.373 44.222 138.099 43.592 139.023 43.136C139.959 42.68 141.015 42.452 142.191 42.452C143.391 42.452 144.423 42.716 145.287 43.244C146.151 43.772 146.817 44.516 147.285 45.476C147.753 46.436 147.987 47.564 147.987 48.86H138.735V46.754H146.151L144.945 47.51C144.909 46.946 144.771 46.472 144.531 46.088C144.303 45.692 143.997 45.392 143.613 45.188C143.229 44.972 142.773 44.864 142.245 44.864C141.669 44.864 141.171 44.978 140.751 45.206C140.331 45.434 140.001 45.752 139.761 46.16C139.533 46.568 139.419 47.042 139.419 47.582C139.419 48.266 139.569 48.848 139.869 49.328C140.181 49.808 140.625 50.174 141.201 50.426C141.789 50.678 142.503 50.804 143.343 50.804C144.111 50.804 144.879 50.702 145.647 50.498C146.415 50.282 147.105 49.982 147.717 49.598V51.776C147.021 52.256 146.223 52.628 145.323 52.892C144.435 53.156 143.475 53.288 142.443 53.288ZM161.208 49.706C161.208 50.474 160.98 51.128 160.524 51.668C160.08 52.196 159.426 52.598 158.562 52.874C157.698 53.15 156.648 53.288 155.412 53.288C154.152 53.288 153.048 53.132 152.1 52.82C151.152 52.508 150.414 52.07 149.886 51.506C149.358 50.942 149.076 50.288 149.04 49.544H152.442C152.514 49.844 152.682 50.108 152.946 50.336C153.222 50.564 153.576 50.738 154.008 50.858C154.44 50.966 154.95 51.02 155.538 51.02C156.33 51.02 156.93 50.936 157.338 50.768C157.746 50.6 157.95 50.348 157.95 50.012C157.95 49.76 157.8 49.568 157.5 49.436C157.212 49.304 156.69 49.208 155.934 49.148L154.062 49.004C152.886 48.908 151.95 48.722 151.254 48.446C150.558 48.158 150.06 47.792 149.76 47.348C149.472 46.904 149.328 46.406 149.328 45.854C149.328 45.098 149.562 44.474 150.03 43.982C150.51 43.478 151.17 43.1 152.01 42.848C152.85 42.584 153.834 42.452 154.962 42.452C156.09 42.452 157.092 42.602 157.968 42.902C158.856 43.202 159.564 43.616 160.092 44.144C160.632 44.672 160.938 45.29 161.01 45.998H157.608C157.56 45.758 157.428 45.536 157.212 45.332C157.008 45.128 156.708 44.966 156.312 44.846C155.928 44.714 155.424 44.648 154.8 44.648C154.092 44.648 153.552 44.726 153.18 44.882C152.808 45.038 152.622 45.266 152.622 45.566C152.622 45.794 152.736 45.98 152.964 46.124C153.192 46.256 153.624 46.346 154.26 46.394L156.69 46.574C157.842 46.67 158.742 46.856 159.39 47.132C160.05 47.396 160.518 47.744 160.794 48.176C161.07 48.608 161.208 49.118 161.208 49.706Z" fill="black"/>
</svg>
