<svg width="638" height="563" viewBox="0 0 638 563" fill="none" xmlns="http://www.w3.org/2000/svg">
<g filter="url(#filter0_d_1925_4035)">
<circle cx="472.912" cy="397.077" r="121.428" fill="black" stroke="black"/>
<circle cx="472.413" cy="396.578" r="85.9488" fill="black" stroke="black"/>
<circle cx="472.413" cy="396.578" r="52.9683" fill="black" stroke="black"/>
<circle cx="453.594" cy="383.293" r="158.906" fill="#FF8225" stroke="black"/>
<circle cx="454.094" cy="383.793" r="121.428" fill="#FFF0E3" stroke="black"/>
<circle cx="453.594" cy="383.294" r="85.9488" fill="#FF8225" stroke="black"/>
<circle cx="453.594" cy="383.294" r="52.9683" fill="#FFF0E3" stroke="black"/>
<circle cx="452.768" cy="384.225" r="28.0531" fill="#FF8225" stroke="black"/>
</g>
<g clip-path="url(#clip0_1925_4035)">
<path d="M0.467439 141.439L13.9491 144.902L13.8119 145.416L0.467439 141.439Z" fill="black"/>
<path d="M40.442 152.803C49.157 155.779 57.8839 158.767 66.5723 161.816L65.8816 163.647C57.2452 160.5 48.6355 157.281 40.0137 154.049L40.442 152.803Z" fill="black"/>
<path d="M92.3681 171.818L117.834 182.589L116.653 185.245L91.4324 174.049L92.3681 171.818Z" fill="black"/>
<path d="M142.945 194.2L167.743 206.42L166.26 209.315L141.588 196.975L142.945 194.2Z" fill="black"/>
<path d="M192.255 219.199C200.34 223.613 208.423 228.051 216.468 232.55L214.786 235.514C206.713 231.113 198.667 226.663 190.633 222.202L192.255 219.199Z" fill="black"/>
<path d="M240.384 246.423L252.239 253.517L264.042 260.709L262.43 263.342L250.6 256.248L238.718 249.227L240.384 246.423Z" fill="black"/>
<path d="M287.48 275.37L310.597 290.529L309.26 292.565L285.91 277.844L287.48 275.37Z" fill="black"/>
<path d="M333.507 306.004C341.076 311.242 348.619 316.529 356.149 321.853L355.393 322.931C347.709 317.849 340.049 312.769 332.403 307.627L333.507 306.004Z" fill="black"/>
<path d="M378.559 338.042L389.716 346.351L378.252 338.478L378.559 338.042Z" fill="black"/>
</g>
<path d="M351.722 320.434C357.183 304.149 324.296 283.014 340.581 288.475C356.867 293.936 434.524 354.53 429.063 370.815C423.602 387.1 332.491 347.975 316.206 342.514C299.921 337.053 346.261 336.719 351.722 320.434Z" fill="black"/>
<path d="M351.476 313.99C352.963 309.555 351.808 304.886 349.698 300.599C347.582 296.301 344.427 292.227 341.668 288.899C340.956 288.041 340.295 287.261 339.679 286.535C339.066 285.81 338.497 285.139 337.967 284.496C337.015 283.339 336.352 282.463 336.018 281.857C336.192 281.877 336.409 281.913 336.678 281.971C337.282 282.101 338.069 282.326 339.069 282.661C340.994 283.307 343.91 284.801 347.573 287.008C351.217 289.203 355.544 292.067 360.273 295.409C369.732 302.093 380.77 310.669 391.13 319.582C401.496 328.5 411.155 337.732 417.872 345.728C421.233 349.73 423.827 353.387 425.41 356.515C427.018 359.693 427.468 362.102 426.92 363.735C426.419 365.231 424.887 366.29 421.964 366.749C419.071 367.203 415.121 367.007 410.372 366.281C400.895 364.831 388.551 361.319 375.813 357.108C363.088 352.902 350.019 348.015 339.106 343.835C335.869 342.595 332.817 341.415 330.019 340.334C323.406 337.778 318.209 335.77 315.329 334.804C314.338 334.472 313.629 334.173 313.151 333.908C312.917 333.779 312.768 333.674 312.675 333.598C312.807 333.493 313.024 333.353 313.364 333.186C314.342 332.704 315.903 332.196 317.926 331.622C319.11 331.286 320.412 330.938 321.809 330.564C322.788 330.302 323.814 330.027 324.879 329.736C329.998 328.334 335.876 326.574 340.828 324.121C345.744 321.685 349.978 318.456 351.476 313.99Z" fill="#BF9BD2" stroke="black" stroke-width="2"/>
<circle cx="399.179" cy="347.229" r="6.65185" transform="rotate(46.4931 399.179 347.229)" fill="black" stroke="black"/>
<circle cx="399.178" cy="347.23" r="4.86389" transform="rotate(46.4931 399.178 347.23)" fill="#FFF0E3" stroke="black"/>
<path d="M404.421 364.44L414.477 342.569C418.363 347.097 426.163 357.608 426.264 363.428C426.365 369.248 411.744 366.528 404.421 364.44Z" fill="#10B9C3" stroke="black"/>
<defs>
<filter id="filter0_d_1925_4035" x="294.188" y="223.888" width="343.812" height="338.812" filterUnits="userSpaceOnUse" color-interpolation-filters="sRGB">
<feFlood flood-opacity="0" result="BackgroundImageFix"/>
<feColorMatrix in="SourceAlpha" type="matrix" values="0 0 0 0 0 0 0 0 0 0 0 0 0 0 0 0 0 0 127 0" result="hardAlpha"/>
<feOffset dx="25" dy="20"/>
<feComposite in2="hardAlpha" operator="out"/>
<feColorMatrix type="matrix" values="0 0 0 0 0 0 0 0 0 0 0 0 0 0 0 0 0 0 1 0"/>
<feBlend mode="normal" in2="BackgroundImageFix" result="effect1_dropShadow_1925_4035"/>
<feBlend mode="normal" in="SourceGraphic" in2="effect1_dropShadow_1925_4035" result="shape"/>
</filter>
<clipPath id="clip0_1925_4035">
<rect width="416.595" height="141.249" fill="white" transform="translate(102.914 44.1973) rotate(46.4931)"/>
</clipPath>
</defs>
</svg>
