<svg width="486" height="527" viewBox="0 0 486 527" fill="none" xmlns="http://www.w3.org/2000/svg">
<path d="M264.571 0.799541C368.72 -0.411476 469.22 65.8098 508.32 162.52C580.308 334.727 450.725 526.837 264.571 526.766C120.624 528.447 -0.808932 407.459 0.530507 263.462C-0.723436 119.494 120.938 -0.568196 264.571 0.799541ZM264.571 1.08449C121.465 0.215403 2.49692 120.747 3.48012 263.476C2.39717 405.949 122.035 525.968 264.571 525.227C408.646 526.139 527.03 407.502 525.947 263.476C526.659 120.79 407.734 0.158414 264.571 1.08449Z" fill="#1D1D1B"/>
<path d="M264.571 19.7625C361.196 18.6227 454.501 80.0427 490.794 169.772C557.609 329.555 437.274 507.831 264.571 507.803C90.4728 508.572 -28.7658 330.367 38.2347 169.729C74.656 80.0427 167.918 18.5942 264.571 19.7625ZM264.571 20.0474C131.839 19.2496 21.5345 131.119 22.4464 263.476C21.449 395.591 132.38 506.919 264.571 506.25C398.245 507.119 508.022 397.087 506.981 263.462C507.608 131.148 397.361 19.1926 264.571 20.0474Z" fill="#1D1D1B"/>
<path d="M264.571 38.7262C353.687 37.6719 439.781 94.2621 473.267 177.039C534.91 324.398 423.808 488.854 264.571 488.84C103.952 489.595 -6.08113 325.182 55.7611 176.982C89.3753 94.2763 175.427 37.6434 264.571 38.7262ZM264.571 39.0111C142.198 38.2845 40.5855 141.477 41.412 263.477C40.5 385.248 142.725 487.871 264.571 487.287C387.842 488.099 488.998 386.687 488.015 263.477C488.571 141.52 386.987 38.2418 264.571 39.0254V39.0111Z" fill="#1D1D1B"/>
<path d="M264.571 57.689C346.163 56.7201 425.061 108.495 455.74 184.29C512.21 319.226 410.342 469.848 264.571 469.877C117.432 470.617 16.6035 319.995 73.2874 184.247C104.095 108.495 182.936 56.6916 264.571 57.689ZM264.571 57.9739C152.557 57.3185 59.6223 151.835 60.3775 263.462C59.5511 374.89 153.07 468.794 264.571 468.309C377.44 469.079 469.989 376.258 469.049 263.462C469.533 151.878 376.628 57.2758 264.571 57.9739Z" fill="#1D1D1B"/>
<path d="M264.571 76.6517C338.653 75.7684 410.342 122.713 438.214 191.542C489.497 314.211 396.947 450.642 264.571 450.899C130.912 451.626 39.3029 314.795 90.8143 191.485C118.814 122.699 190.46 75.7114 264.571 76.6375V76.6517ZM264.571 76.9367C163.101 76.2385 78.5313 162.378 79.3436 263.462C78.6168 364.546 163.429 449.745 264.571 449.346C381.914 450.144 469.676 341.907 446.464 227.274C430.177 141.719 352.033 76.1388 264.571 76.9224V76.9367Z" fill="#1D1D1B"/>
<path d="M264.571 95.6293C331.144 94.8315 395.622 136.946 420.687 198.822C466.798 309.068 383.496 431.665 264.571 431.965C144.378 432.677 61.9878 309.638 108.341 198.78C133.534 136.961 197.969 94.803 264.571 95.6436V95.6293ZM264.571 95.9142C173.446 95.3016 97.5827 172.736 98.3094 263.476C97.6682 354.217 173.774 430.711 264.571 430.397C370.002 431.167 448.73 333.958 427.868 230.993C413.234 154.171 343.142 95.2019 264.571 95.9142Z" fill="#1D1D1B"/>
<path d="M264.571 114.592C323.634 113.88 380.888 151.179 403.16 206.074C444.098 303.896 370.03 412.674 264.571 412.987C157.857 413.685 84.6725 304.437 125.867 206.017C148.253 151.165 205.478 113.837 264.571 114.578V114.592ZM264.571 114.877C183.791 114.35 116.634 183.079 117.275 263.476C116.719 343.859 184.119 411.662 264.571 411.434C358.089 412.175 427.768 325.979 409.258 234.697C396.263 166.623 334.236 114.265 264.571 114.877Z" fill="#1D1D1B"/>
<path d="M264.571 133.556C357.363 133.157 421.827 227.474 385.235 313.442C365.485 361.113 316.239 394.181 264.571 394.025C193.053 395.093 132.579 335.027 133.306 263.463C132.394 192.226 193.78 132.502 264.571 133.542V133.556ZM264.571 133.841C194.136 133.399 135.7 193.423 136.241 263.477C135.771 333.516 194.464 392.6 264.571 392.472C346.177 393.184 406.822 318.001 390.649 238.402C379.307 179.076 325.33 133.328 264.571 133.855V133.841Z" fill="#1D1D1B"/>
<path d="M264.571 152.519C343.912 152.163 399.128 232.631 367.708 306.19C350.78 346.88 308.716 375.147 264.571 375.061C220.199 375.902 177.465 347.592 160.793 306.446C130.143 232.56 184.96 152.22 264.571 152.519ZM264.571 152.804C204.596 152.362 154.666 203.88 155.207 263.476C154.823 323.173 204.809 373.551 264.571 373.508C334.265 374.192 385.876 310.022 372.054 242.091C362.365 191.499 316.439 152.376 264.571 152.804Z" fill="#1D1D1B"/>
<path d="M264.571 171.482C330.46 171.154 376.428 237.788 350.181 298.923C336.06 332.647 301.192 356.084 264.571 356.098C227.694 356.953 192.184 333.331 178.32 299.194C152.827 237.746 198.44 171.211 264.571 171.482ZM264.571 171.767C228.335 171.439 194.122 195.303 180.941 228.841C156.561 288.153 200.435 354.046 264.571 354.545C330.032 355.072 372.88 288.779 348.314 228.798C335.02 195.317 300.836 171.41 264.571 171.767Z" fill="#1D1D1B"/>
<path d="M264.571 190.445C304.854 190.203 339.195 222.701 338.639 263.477C338.411 303.397 304.398 336.95 264.571 337.135C211.806 337.89 175.427 283.622 195.975 235.068C207.132 208.026 235.531 190.146 264.571 190.445ZM264.571 190.73C201.047 191.314 169.556 268.99 213.972 314.054C241.316 342.093 288.239 342.948 315.755 314.653C360.028 269.589 327.952 191.058 264.557 190.73H264.571Z" fill="#1D1D1B"/>
<path d="M264.571 209.408C314.017 209.75 338.198 266.654 303.03 301.916C275.315 329.342 228.663 320.893 213.388 284.662C198.141 248.033 225.4 209.251 264.571 209.394V209.408ZM264.571 209.693C217.919 210.163 194.878 267.594 227.395 300.648C260.981 334.243 317.893 311.404 317.323 263.462C317.365 235.125 293.455 209.308 264.586 209.693H264.571Z" fill="#1D1D1B"/>
<path d="M264.571 228.371C290.078 228.2 308.374 253.218 297.601 277.154C284.492 305.805 243.724 307.03 230.9 277.424C220.769 253.361 238.951 228.143 264.571 228.385V228.371ZM264.571 228.656C234.819 228.969 220.156 266.226 240.803 287.241C262.363 308.968 299.012 294.564 298.342 263.476C298.314 245.482 283.081 228.371 264.571 228.67V228.656Z" fill="#1D1D1B"/>
<path d="M78.3318 254.187C82.7074 254.187 86.2545 250.64 86.2545 246.265C86.2545 241.89 82.7074 238.344 78.3318 238.344C73.9563 238.344 70.4092 241.89 70.4092 246.265C70.4092 250.64 73.9563 254.187 78.3318 254.187Z" fill="#10B9C3" stroke="#1D1D1B" stroke-width="2" stroke-miterlimit="10"/>
<path d="M24.9827 393.454C37.6686 393.454 47.9526 383.171 47.9526 370.487C47.9526 357.803 37.6686 347.521 24.9827 347.521C12.2967 347.521 2.0127 357.803 2.0127 370.487C2.0127 383.171 12.2967 393.454 24.9827 393.454Z" fill="#BF9BD2" stroke="#1D1D1B" stroke-width="2" stroke-miterlimit="10"/>
<path d="M164.028 152.646C176.714 152.646 186.998 142.364 186.998 129.679C186.998 116.995 176.714 106.713 164.028 106.713C151.342 106.713 141.058 116.995 141.058 129.679C141.058 142.364 151.342 152.646 164.028 152.646Z" fill="#BF9BD2" stroke="#1D1D1B" stroke-width="2" stroke-miterlimit="10"/>
<path d="M169.086 467.013C181.772 467.013 192.056 456.731 192.056 444.047C192.056 431.363 181.772 421.08 169.086 421.08C156.4 421.08 146.116 431.363 146.116 444.047C146.116 456.731 156.4 467.013 169.086 467.013Z" fill="#FF8225" stroke="#1D1D1B" stroke-width="2" stroke-miterlimit="10"/>
<path d="M89.6748 343.189C96.9936 343.189 102.927 337.257 102.927 329.939C102.927 322.622 96.9936 316.689 89.6748 316.689C82.3559 316.689 76.4229 322.622 76.4229 329.939C76.4229 337.257 82.3559 343.189 89.6748 343.189Z" fill="#FF8225" stroke="#1D1D1B" stroke-width="2" stroke-miterlimit="10"/>
<path d="M239.449 298.425C246.768 298.425 252.701 292.493 252.701 285.175C252.701 277.857 246.768 271.925 239.449 271.925C232.13 271.925 226.197 277.857 226.197 285.175C226.197 292.493 232.13 298.425 239.449 298.425Z" fill="#FF8225" stroke="#1D1D1B" stroke-width="2" stroke-miterlimit="10"/>
<path d="M85.8701 169.573C93.1889 169.573 99.122 163.641 99.122 156.323C99.122 149.005 93.1889 143.073 85.8701 143.073C78.5512 143.073 72.6182 149.005 72.6182 156.323C72.6182 163.641 78.5512 169.573 85.8701 169.573Z" fill="#BF9BD2" stroke="#1D1D1B" stroke-width="2" stroke-miterlimit="10"/>
<path d="M229.617 38.2841C236.936 38.2841 242.869 32.3519 242.869 25.0341C242.869 17.7164 236.936 11.7842 229.617 11.7842C222.298 11.7842 216.365 17.7164 216.365 25.0341C216.365 32.3519 222.298 38.2841 229.617 38.2841Z" fill="#30AAB8" stroke="#1D1D1B" stroke-width="2" stroke-miterlimit="10"/>
<path d="M24.9824 230.878C32.3012 230.878 38.2343 224.946 38.2343 217.628C38.2343 210.31 32.3012 204.378 24.9824 204.378C17.6635 204.378 11.7305 210.31 11.7305 217.628C11.7305 224.946 17.6635 230.878 24.9824 230.878Z" fill="#10B9C3" stroke="#1D1D1B" stroke-width="2" stroke-miterlimit="10"/>
<path d="M188.594 322.474C192.969 322.474 196.516 318.927 196.516 314.552C196.516 310.177 192.969 306.631 188.594 306.631C184.218 306.631 180.671 310.177 180.671 314.552C180.671 318.927 184.218 322.474 188.594 322.474Z" fill="#10B9C3" stroke="#1D1D1B" stroke-width="2" stroke-miterlimit="10"/>
<path d="M118.971 240.311C123.347 240.311 126.894 236.764 126.894 232.389C126.894 228.014 123.347 224.468 118.971 224.468C114.596 224.468 111.049 228.014 111.049 232.389C111.049 236.764 114.596 240.311 118.971 240.311Z" fill="#10B9C3" stroke="#1D1D1B" stroke-width="2" stroke-miterlimit="10"/>
<path d="M57.4736 63.6963L57.6837 63.4876C58.2721 62.9031 58.3416 61.8508 57.6947 61.0399C57.0006 60.1788 55.8643 60.0461 55.176 60.5987C54.4876 61.1513 54.3705 62.2873 55.0674 63.1547L57.4736 63.6963ZM57.4736 63.6963L57.3046 63.778C56.6244 64.107 55.6716 63.9054 55.0674 63.1548L57.4736 63.6963ZM101.93 58.2463L101.931 58.2456C102.623 59.1123 102.505 60.2447 101.818 60.7963L101.817 60.7966C101.154 61.3303 100.082 61.2226 99.3761 60.4312L99.2552 60.2957L99.1694 60.1612C98.6296 59.3155 98.7708 58.3144 99.409 57.8046L99.41 57.8039C100.099 57.251 101.236 57.3841 101.93 58.2463ZM45.7283 103.046L45.8971 103.211L45.9979 103.353C46.6009 104.204 46.4692 105.262 45.8115 105.794C45.1219 106.347 43.9889 106.217 43.293 105.351C42.5961 104.484 42.7132 103.348 43.4016 102.795L43.4042 102.793C44.0254 102.287 45.022 102.356 45.7283 103.046ZM78.1093 73.6808C82.2963 72.3715 87.322 69.253 94.2856 64.285C91.2618 67.0134 88.7467 69.3985 86.7081 71.5549C83.7558 74.6776 81.7731 77.3506 80.6954 79.9255L80.5685 80.2286L80.7965 80.4654C83.3458 83.1118 87.3406 84.9611 93.0611 87.0015C87.7388 86.2896 83.6898 86.0671 80.4239 86.8348L79.9406 86.9484L80.0508 87.4325C80.7839 90.6521 82.6926 94.1633 85.5349 98.5773C81.3884 94.4007 78.0895 91.6068 74.7284 90.3644L74.4134 90.248L74.1865 90.4955C72.3363 92.5133 70.7774 95.3616 69.2318 99.2376C68.1049 102.064 66.9776 105.456 65.7486 109.503C67.3124 100.935 67.9962 94.9983 67.3399 90.625L67.2551 90.0594L66.7059 90.2191C62.437 91.46 57.3172 94.623 50.1361 99.7466C53.3447 96.8522 55.9826 94.3437 58.0868 92.0847C60.9538 89.0066 62.8602 86.3607 63.8652 83.7978L63.9863 83.4891L63.7489 83.2575C61.1951 80.7652 57.2802 78.9739 51.7721 77.0077C56.8862 77.6871 60.8273 77.9183 64.0194 77.2538L64.5156 77.1505L64.4055 76.6558C63.6849 73.4162 61.7685 69.8893 58.9127 65.4478C63.1712 69.7337 66.5336 72.5663 69.9962 73.758L70.3026 73.8635L70.524 73.627C72.445 71.5752 74.0496 68.6419 75.6434 64.6131C76.7548 61.8039 77.8685 58.4417 79.0817 54.4437C77.5235 62.9798 76.8347 68.9068 77.4651 73.275L77.549 73.856L78.1093 73.6808ZM95.5504 87.8307L95.5695 87.6177L95.6559 87.4036C95.9556 86.6615 96.8588 86.1847 97.8369 86.4236L97.8392 86.4242C98.9195 86.6825 99.52 87.6567 99.3114 88.5144C99.1027 89.3722 98.1234 89.9602 97.0469 89.6992L97.046 89.699C96.0619 89.4623 95.4794 88.6266 95.5504 87.8307ZM86.9985 100.75L87.1554 100.58L87.3404 100.471C88.027 100.069 89.03 100.24 89.6655 101.028C90.362 101.895 90.2448 103.031 89.5566 103.583C88.8683 104.136 87.7321 104.003 87.0379 103.142C86.4105 102.357 86.4556 101.337 86.9985 100.75ZM49.5933 76.2024L49.5583 76.4604L49.4586 76.6608C49.1229 77.3357 48.2478 77.7594 47.3096 77.5332L47.3088 77.533C46.2286 77.2747 45.628 76.3005 45.8367 75.4428C46.0453 74.585 47.0246 73.997 48.1011 74.258C49.1165 74.5043 49.7044 75.3817 49.5933 76.2024ZM64.2635 114.834L64.4598 114.858L64.66 114.919C65.6596 115.228 66.203 116.146 66.0033 116.963L66.0032 116.963C65.7945 117.821 64.8152 118.409 63.7387 118.148L63.7372 118.148C62.657 117.889 62.0565 116.915 62.2651 116.057L62.2658 116.055C62.4513 115.272 63.283 114.718 64.2635 114.834ZM80.7538 48.3383L80.5904 48.3073L80.4212 48.2458C79.486 47.9056 78.9849 47.0261 79.177 46.2322C79.3856 45.3745 80.3649 44.7864 81.4414 45.0475L81.4429 45.0478C82.523 45.3061 83.1235 46.2801 82.9151 47.1378C82.7125 47.9637 81.791 48.5353 80.7538 48.3383Z" fill="#FF8225" stroke="black"/>
</svg>
